Upgrade_Try-Light_Italic.ufo
<glyph name="exclam" format="2">
  <advance width="184"/>
  <unicode hex="0021"/>
  <outline>
    <contour>
      <point x="100" y="164" type="line"/>
      <point x="130" y="164" type="line"/>
      <point x="209" y="724" type="line"/>
      <point x="179" y="724" type="line"/>
    </contour>
    <contour>
      <point x="72" y="0" type="line"/>
      <point x="112" y="0" type="line"/>
      <point x="118" y="40" type="line"/>
      <point x="78" y="40" type="line"/>
    </contour>
  </outline>
</glyph>
<glyph name="dollar" format="2">
  <advance width="491"/>
  <unicode hex="0024"/>
  <outline>
    <contour>
      <point x="283" y="343" type="line" smooth="yes"/>
      <point x="312" y="343" type="line" smooth="yes"/>
      <point x="369" y="748" type="line" smooth="yes"/>
      <point x="340" y="748" type="line" smooth="yes"/>
    </contour>
    <contour>
      <point x="223" y="-90" type="line"/>
      <point x="252" y="-90" type="line"/>
      <point x="311" y="333" type="line"/>
      <point x="282" y="333" type="line"/>
    </contour>
    <component base="S" xOffset="-4"/>
  </outline>
</glyph>
<glyph name="ampersand" format="2">
  <advance width="598"/>
  <unicode hex="0026"/>
  <outline>
    <contour>
      <point x="494" y="-117" type="curve" smooth="yes"/>
      <point x="516" y="-117"/>
      <point x="545" y="-109"/>
      <point x="565" y="-95" type="curve"/>
      <point x="569" y="-63" type="line"/>
      <point x="550" y="-78"/>
      <point x="520" y="-89"/>
      <point x="494" y="-89" type="curve" smooth="yes"/>
      <point x="457" y="-89"/>
      <point x="439" y="-60"/>
      <point x="444" y="-21" type="curve" smooth="yes"/>
      <point x="493" y="326" type="line"/>
      <point x="624" y="326" type="line"/>
      <point x="628" y="354" type="line"/>
      <point x="497" y="354" type="line"/>
      <point x="519" y="510" type="line"/>
      <point x="489" y="510" type="line"/>
      <point x="467" y="354" type="line"/>
      <point x="325" y="354" type="line" smooth="yes"/>
      <point x="239" y="354"/>
      <point x="182" y="413"/>
      <point x="182" y="492" type="curve" smooth="yes"/>
      <point x="182" y="582"/>
      <point x="251" y="651"/>
      <point x="360" y="651" type="curve" smooth="yes"/>
      <point x="412" y="651"/>
      <point x="463" y="639"/>
      <point x="513" y="613" type="curve"/>
      <point x="517" y="645" type="line"/>
      <point x="460" y="671"/>
      <point x="407" y="680"/>
      <point x="360" y="680" type="curve" smooth="yes"/>
      <point x="241" y="680"/>
      <point x="151" y="608"/>
      <point x="151" y="491" type="curve" smooth="yes"/>
      <point x="151" y="412"/>
      <point x="203" y="350"/>
      <point x="278" y="337" type="curve"/>
      <point x="262" y="347" type="line"/>
      <point x="153" y="331"/>
      <point x="83" y="249"/>
      <point x="83" y="151" type="curve" smooth="yes"/>
      <point x="83" y="50"/>
      <point x="156" y="-12"/>
      <point x="252" y="-12" type="curve" smooth="yes"/>
      <point x="327" y="-12"/>
      <point x="404" y="36"/>
      <point x="435" y="112" type="curve"/>
      <point x="424" y="59" type="line"/>
      <point x="413" y="-21" type="line" smooth="yes"/>
      <point x="404" y="-80"/>
      <point x="439" y="-117"/>
    </contour>
    <contour>
      <point x="255" y="17" type="curve" smooth="yes"/>
      <point x="168" y="17"/>
      <point x="114" y="74"/>
      <point x="114" y="151" type="curve" smooth="yes"/>
      <point x="114" y="252"/>
      <point x="191" y="326"/>
      <point x="313" y="326" type="curve" smooth="yes"/>
      <point x="463" y="326" type="line"/>
      <point x="448" y="221" type="line" smooth="yes"/>
      <point x="431" y="104"/>
      <point x="356" y="17"/>
    </contour>
  </outline>
</glyph>
<glyph name="parenleft" format="2">
  <advance width="299"/>
  <unicode hex="0028"/>
  <outline>
    <contour>
      <point x="210" y="-220" type="curve"/>
      <point x="248" y="-220" type="line"/>
      <point x="169" y="-91"/>
      <point x="125" y="47"/>
      <point x="125" y="189" type="curve" smooth="yes"/>
      <point x="125" y="384"/>
      <point x="216" y="589"/>
      <point x="367" y="724" type="curve"/>
      <point x="329" y="724" type="line"/>
      <point x="182" y="594"/>
      <point x="93" y="388"/>
      <point x="93" y="188" type="curve" smooth="yes"/>
      <point x="93" y="42"/>
      <point x="137" y="-96"/>
    </contour>
  </outline>
</glyph>
<glyph name="parenright" format="2">
  <advance width="299"/>
  <unicode hex="0029"/>
  <outline>
    <contour>
      <point x="3" y="-220" type="curve"/>
      <point x="41" y="-220" type="line"/>
      <point x="188" y="-90"/>
      <point x="277" y="116"/>
      <point x="277" y="316" type="curve" smooth="yes"/>
      <point x="277" y="462"/>
      <point x="233" y="600"/>
      <point x="160" y="724" type="curve"/>
      <point x="122" y="724" type="line"/>
      <point x="201" y="595"/>
      <point x="245" y="457"/>
      <point x="245" y="315" type="curve" smooth="yes"/>
      <point x="245" y="120"/>
      <point x="154" y="-85"/>
    </contour>
  </outline>
</glyph>
<glyph name="hyphen" format="2">
  <advance width="340"/>
  <unicode hex="002D"/>
  <unicode hex="00AD"/>
  <unicode hex="2010"/>
  <outline>
    <contour>
      <point x="62" y="211" type="line"/>
      <point x="342" y="211" type="line"/>
      <point x="346" y="240" type="line"/>
      <point x="66" y="240" type="line"/>
    </contour>
  </outline>
</glyph>
<glyph name="period" format="2">
  <advance width="154"/>
  <unicode hex="002E"/>
  <outline>
    <contour>
      <point x="56" y="0" type="line"/>
      <point x="98" y="0" type="line"/>
      <point x="104" y="42" type="line"/>
      <point x="62" y="42" type="line"/>
    </contour>
  </outline>
</glyph>
<glyph name="slash" format="2">
  <advance width="351"/>
  <unicode hex="002F"/>
  <outline>
    <contour>
      <point x="16" y="0" type="line"/>
      <point x="48" y="0" type="line"/>
      <point x="437" y="724" type="line"/>
      <point x="405" y="724" type="line"/>
    </contour>
  </outline>
</glyph>
<glyph name="zero" format="2">
  <advance width="553"/>
  <unicode hex="0030"/>
  <anchor x="324" y="457" name="top"/>
  <outline>
    <contour>
      <point x="288" y="-12" type="curve" smooth="yes"/>
      <point x="466" y="-12"/>
      <point x="548" y="210"/>
      <point x="548" y="422" type="curve" smooth="yes"/>
      <point x="548" y="602"/>
      <point x="464" y="670"/>
      <point x="357" y="670" type="curve" smooth="yes"/>
      <point x="181" y="670"/>
      <point x="97" y="448"/>
      <point x="97" y="236" type="curve" smooth="yes"/>
      <point x="97" y="55"/>
      <point x="181" y="-12"/>
    </contour>
    <contour>
      <point x="288" y="16" type="curve" smooth="yes"/>
      <point x="197" y="16"/>
      <point x="129" y="81"/>
      <point x="129" y="236" type="curve" smooth="yes"/>
      <point x="129" y="427"/>
      <point x="203" y="641"/>
      <point x="357" y="641" type="curve" smooth="yes"/>
      <point x="448" y="641"/>
      <point x="516" y="577"/>
      <point x="516" y="421" type="curve" smooth="yes"/>
      <point x="516" y="233"/>
      <point x="442" y="16"/>
    </contour>
  </outline>
</glyph>
<glyph name="one" format="2">
  <advance width="330"/>
  <unicode hex="0031"/>
  <outline>
    <contour>
      <point x="174" y="0" type="line"/>
      <point x="206" y="0" type="line"/>
      <point x="300" y="672" type="line"/>
      <point x="134" y="640" type="line"/>
      <point x="130" y="612" type="line"/>
      <point x="264" y="637" type="line"/>
    </contour>
  </outline>
</glyph>
<glyph name="two" format="2">
  <advance width="476"/>
  <unicode hex="0032"/>
  <outline>
    <contour>
      <point x="51" y="0" type="line"/>
      <point x="424" y="0" type="line"/>
      <point x="428" y="32" type="line"/>
      <point x="64" y="32" type="line"/>
      <point x="68" y="19" type="line"/>
      <point x="224" y="136" type="line" smooth="yes"/>
      <point x="407" y="273"/>
      <point x="476" y="365"/>
      <point x="476" y="497" type="curve" smooth="yes"/>
      <point x="476" y="609"/>
      <point x="402" y="670"/>
      <point x="299" y="670" type="curve" smooth="yes"/>
      <point x="239" y="670"/>
      <point x="191" y="653"/>
      <point x="134" y="615" type="curve"/>
      <point x="129" y="576" type="line"/>
      <point x="184" y="619"/>
      <point x="236" y="641"/>
      <point x="299" y="641" type="curve" smooth="yes"/>
      <point x="389" y="641"/>
      <point x="443" y="581"/>
      <point x="443" y="496" type="curve" smooth="yes"/>
      <point x="443" y="380"/>
      <point x="384" y="295"/>
      <point x="206" y="159" type="curve" smooth="yes"/>
      <point x="57" y="45" type="line"/>
    </contour>
  </outline>
</glyph>
<glyph name="three" format="2">
  <advance width="468"/>
  <unicode hex="0033"/>
  <outline>
    <contour>
      <point x="238" y="-12" type="curve" smooth="yes"/>
      <point x="366" y="-12"/>
      <point x="447" y="71"/>
      <point x="447" y="178" type="curve" smooth="yes"/>
      <point x="447" y="280"/>
      <point x="379" y="341"/>
      <point x="287" y="342" type="curve"/>
      <point x="286" y="334" type="line"/>
      <point x="398" y="348"/>
      <point x="481" y="424"/>
      <point x="481" y="521" type="curve" smooth="yes"/>
      <point x="481" y="611"/>
      <point x="427" y="670"/>
      <point x="320" y="670" type="curve" smooth="yes"/>
      <point x="262" y="670"/>
      <point x="209" y="651"/>
      <point x="157" y="614" type="curve"/>
      <point x="152" y="576" type="line"/>
      <point x="202" y="618"/>
      <point x="258" y="641"/>
      <point x="320" y="641" type="curve" smooth="yes"/>
      <point x="400" y="641"/>
      <point x="449" y="598"/>
      <point x="449" y="520" type="curve" smooth="yes"/>
      <point x="449" y="417"/>
      <point x="352" y="354"/>
      <point x="236" y="354" type="curve" smooth="yes"/>
      <point x="213" y="354" type="line"/>
      <point x="209" y="324" type="line"/>
      <point x="234" y="324" type="line" smooth="yes"/>
      <point x="352" y="324"/>
      <point x="415" y="272"/>
      <point x="415" y="178" type="curve" smooth="yes"/>
      <point x="415" y="80"/>
      <point x="340" y="17"/>
      <point x="238" y="17" type="curve" smooth="yes"/>
      <point x="164" y="17"/>
      <point x="100" y="44"/>
      <point x="58" y="100" type="curve"/>
      <point x="52" y="60" type="line"/>
      <point x="98" y="13"/>
      <point x="157" y="-12"/>
    </contour>
  </outline>
</glyph>
<glyph name="four" format="2">
  <advance width="518"/>
  <unicode hex="0034"/>
  <outline>
    <contour>
      <point x="341" y="0" type="line"/>
      <point x="373" y="0" type="line"/>
      <point x="400" y="194" type="line"/>
      <point x="505" y="194" type="line"/>
      <point x="509" y="223" type="line"/>
      <point x="404" y="223" type="line"/>
      <point x="467" y="674" type="line"/>
      <point x="445" y="674" type="line"/>
      <point x="75" y="221" type="line"/>
      <point x="71" y="194" type="line"/>
      <point x="368" y="194" type="line"/>
    </contour>
    <contour>
      <point x="372" y="223" type="line"/>
      <point x="113" y="223" type="line"/>
      <point x="426" y="605" type="line"/>
    </contour>
  </outline>
</glyph>
<glyph name="five" format="2">
  <advance width="493"/>
  <unicode hex="0035"/>
  <outline>
    <contour>
      <point x="237" y="-12" type="curve" smooth="yes"/>
      <point x="366" y="-12"/>
      <point x="463" y="80"/>
      <point x="463" y="205" type="curve" smooth="yes"/>
      <point x="463" y="318"/>
      <point x="387" y="387"/>
      <point x="270" y="387" type="curve" smooth="yes"/>
      <point x="232" y="387"/>
      <point x="188" y="381"/>
      <point x="153" y="370" type="curve"/>
      <point x="156" y="361" type="line"/>
      <point x="211" y="626" type="line"/>
      <point x="492" y="626" type="line"/>
      <point x="497" y="658" type="line"/>
      <point x="190" y="658" type="line"/>
      <point x="121" y="334" type="line"/>
      <point x="166" y="349"/>
      <point x="222" y="358"/>
      <point x="270" y="358" type="curve" smooth="yes"/>
      <point x="369" y="358"/>
      <point x="431" y="299"/>
      <point x="431" y="203" type="curve" smooth="yes"/>
      <point x="431" y="96"/>
      <point x="348" y="17"/>
      <point x="237" y="17" type="curve" smooth="yes"/>
      <point x="162" y="17"/>
      <point x="109" y="45"/>
      <point x="70" y="100" type="curve"/>
      <point x="64" y="60" type="line"/>
      <point x="107" y="11"/>
      <point x="162" y="-12"/>
    </contour>
  </outline>
</glyph>
<glyph name="seven" format="2">
  <advance width="453"/>
  <unicode hex="0037"/>
  <outline>
    <contour>
      <point x="142" y="0" type="line" smooth="yes"/>
      <point x="174" y="0" type="line" smooth="yes"/>
      <point x="498" y="640" type="line" smooth="yes"/>
      <point x="501" y="658" type="line" smooth="yes"/>
      <point x="136" y="658" type="line"/>
      <point x="132" y="626" type="line"/>
      <point x="479" y="626" type="line" smooth="yes"/>
      <point x="467" y="641" type="line" smooth="yes"/>
    </contour>
  </outline>
</glyph>
<glyph name="question" format="2">
  <advance width="403"/>
  <unicode hex="003F"/>
  <outline>
    <contour>
      <point x="154" y="0" type="line"/>
      <point x="194" y="0" type="line"/>
      <point x="200" y="40" type="line"/>
      <point x="160" y="40" type="line"/>
    </contour>
    <contour>
      <point x="183" y="164" type="curve"/>
      <point x="212" y="164" type="line"/>
      <point x="225" y="259"/>
      <point x="258" y="313"/>
      <point x="330" y="385" type="curve" smooth="yes"/>
      <point x="404" y="459"/>
      <point x="445" y="517"/>
      <point x="445" y="595" type="curve" smooth="yes"/>
      <point x="445" y="681"/>
      <point x="387" y="735"/>
      <point x="293" y="735" type="curve" smooth="yes"/>
      <point x="236" y="735"/>
      <point x="181" y="717"/>
      <point x="137" y="687" type="curve"/>
      <point x="131" y="647" type="line"/>
      <point x="177" y="687"/>
      <point x="236" y="707"/>
      <point x="293" y="707" type="curve" smooth="yes"/>
      <point x="373" y="707"/>
      <point x="413" y="658"/>
      <point x="413" y="595" type="curve" smooth="yes"/>
      <point x="413" y="526"/>
      <point x="379" y="473"/>
      <point x="309" y="405" type="curve" smooth="yes"/>
      <point x="230" y="329"/>
      <point x="198" y="270"/>
    </contour>
  </outline>
</glyph>
<glyph name="at" format="2">
  <advance width="782"/>
  <unicode hex="0040"/>
  <outline>
    <contour>
      <point x="378" y="-69" type="curve" smooth="yes"/>
      <point x="440" y="-69"/>
      <point x="496" y="-58"/>
      <point x="556" y="-32" type="curve"/>
      <point x="560" y="0" type="line"/>
      <point x="502" y="-27"/>
      <point x="445" y="-41"/>
      <point x="378" y="-41" type="curve" smooth="yes"/>
      <point x="225" y="-41"/>
      <point x="111" y="74"/>
      <point x="111" y="227" type="curve" smooth="yes"/>
      <point x="111" y="438"/>
      <point x="249" y="595"/>
      <point x="473" y="595" type="curve" smooth="yes"/>
      <point x="645" y="595"/>
      <point x="751" y="480"/>
      <point x="751" y="337" type="curve" smooth="yes"/>
      <point x="751" y="217"/>
      <point x="704" y="135"/>
      <point x="632" y="135" type="curve" smooth="yes"/>
      <point x="566" y="135"/>
      <point x="536" y="186"/>
      <point x="547" y="272" type="curve" smooth="yes"/>
      <point x="570" y="454" type="line"/>
      <point x="539" y="460"/>
      <point x="506" y="463"/>
      <point x="479" y="463" type="curve" smooth="yes"/>
      <point x="351" y="463"/>
      <point x="256" y="368"/>
      <point x="256" y="240" type="curve" smooth="yes"/>
      <point x="256" y="158"/>
      <point x="304" y="107"/>
      <point x="379" y="107" type="curve" smooth="yes"/>
      <point x="430" y="107"/>
      <point x="501" y="135"/>
      <point x="526" y="237" type="curve"/>
      <point x="518" y="247" type="line"/>
      <point x="520" y="147"/>
      <point x="567" y="107"/>
      <point x="632" y="107" type="curve" smooth="yes"/>
      <point x="716" y="107"/>
      <point x="781" y="190"/>
      <point x="781" y="338" type="curve" smooth="yes"/>
      <point x="781" y="509"/>
      <point x="650" y="623"/>
      <point x="473" y="623" type="curve" smooth="yes"/>
      <point x="248" y="623"/>
      <point x="81" y="472"/>
      <point x="81" y="227" type="curve" smooth="yes"/>
      <point x="81" y="57"/>
      <point x="208" y="-69"/>
    </contour>
    <contour>
      <point x="379" y="135" type="curve" smooth="yes"/>
      <point x="322" y="135"/>
      <point x="286" y="177"/>
      <point x="286" y="240" type="curve" smooth="yes"/>
      <point x="286" y="352"/>
      <point x="368" y="435"/>
      <point x="479" y="435" type="curve" smooth="yes"/>
      <point x="501" y="435"/>
      <point x="519" y="433"/>
      <point x="537" y="430" type="curve"/>
      <point x="530" y="375" type="line" smooth="yes"/>
      <point x="501" y="148"/>
      <point x="429" y="135"/>
    </contour>
  </outline>
</glyph>
<glyph name="A" format="2">
  <advance width="595"/>
  <unicode hex="0041"/>
  <anchor x="386" y="642" name="top"/>
  <anchor x="574" y="16" name="ogonek"/>
  <outline>
    <contour>
      <point x="20" y="0" type="line"/>
      <point x="52" y="0" type="line"/>
      <point x="184" y="249" type="line"/>
      <point x="166" y="249" type="line"/>
      <point x="496" y="249" type="line"/>
      <point x="481" y="249" type="line"/>
      <point x="543" y="0" type="line"/>
      <point x="575" y="0" type="line"/>
      <point x="406" y="670" type="line"/>
      <point x="375" y="670" type="line"/>
    </contour>
    <contour>
      <point x="199" y="278" type="line"/>
      <point x="369" y="598" type="line"/>
      <point x="394" y="648" type="line"/>
      <point x="382" y="648" type="line"/>
      <point x="394" y="598" type="line"/>
      <point x="474" y="278" type="line"/>
      <point x="491" y="278" type="line"/>
      <point x="181" y="278" type="line"/>
    </contour>
  </outline>
</glyph>
<glyph name="B" format="2">
  <advance width="510"/>
  <unicode hex="0042"/>
  <outline>
    <contour>
      <point x="80" y="0" type="line"/>
      <point x="257" y="0" type="line" smooth="yes"/>
      <point x="406" y="0"/>
      <point x="483" y="81"/>
      <point x="483" y="190" type="curve" smooth="yes"/>
      <point x="483" y="264"/>
      <point x="442" y="340"/>
      <point x="299" y="338" type="curve"/>
      <point x="299" y="333" type="line"/>
      <point x="447" y="332"/>
      <point x="498" y="420"/>
      <point x="498" y="507" type="curve" smooth="yes"/>
      <point x="498" y="594"/>
      <point x="442" y="658"/>
      <point x="322" y="658" type="curve" smooth="yes"/>
      <point x="172" y="658" type="line"/>
    </contour>
    <contour>
      <point x="161" y="350" type="line"/>
      <point x="200" y="629" type="line"/>
      <point x="318" y="629" type="line" smooth="yes"/>
      <point x="412" y="629"/>
      <point x="465" y="584"/>
      <point x="465" y="505" type="curve" smooth="yes"/>
      <point x="465" y="404"/>
      <point x="392" y="350"/>
      <point x="273" y="350" type="curve" smooth="yes"/>
    </contour>
    <contour>
      <point x="116" y="29" type="line"/>
      <point x="156" y="321" type="line"/>
      <point x="281" y="321" type="line" smooth="yes"/>
      <point x="393" y="321"/>
      <point x="450" y="271"/>
      <point x="450" y="187" type="curve" smooth="yes"/>
      <point x="450" y="90"/>
      <point x="378" y="29"/>
      <point x="257" y="29" type="curve" smooth="yes"/>
    </contour>
  </outline>
</glyph>
<glyph name="C" format="2">
  <advance width="677"/>
  <unicode hex="0043"/>
  <anchor x="484" y="650" name="top"/>
  <anchor x="413" y="16" name="bottom"/>
  <outline>
    <contour>
      <point x="424" y="-12" type="curve" smooth="yes"/>
      <point x="498" y="-12"/>
      <point x="567" y="5"/>
      <point x="639" y="42" type="curve"/>
      <point x="644" y="78" type="line"/>
      <point x="573" y="38"/>
      <point x="502" y="18"/>
      <point x="424" y="18" type="curve" smooth="yes"/>
      <point x="252" y="18"/>
      <point x="134" y="126"/>
      <point x="134" y="289" type="curve" smooth="yes"/>
      <point x="134" y="491"/>
      <point x="288" y="641"/>
      <point x="488" y="641" type="curve" smooth="yes"/>
      <point x="569" y="641"/>
      <point x="642" y="620"/>
      <point x="707" y="580" type="curve"/>
      <point x="712" y="614" type="line"/>
      <point x="638" y="653"/>
      <point x="565" y="670"/>
      <point x="488" y="670" type="curve" smooth="yes"/>
      <point x="269" y="670"/>
      <point x="101" y="507"/>
      <point x="101" y="289" type="curve" smooth="yes"/>
      <point x="101" y="116"/>
      <point x="225" y="-12"/>
    </contour>
  </outline>
</glyph>
<glyph name="D" format="2">
  <advance width="693"/>
  <unicode hex="0044"/>
  <anchor x="352" y="642" name="top"/>
  <outline>
    <contour>
      <point x="80" y="0" type="line"/>
      <point x="258" y="0" type="line" smooth="yes"/>
      <point x="519" y="0"/>
      <point x="686" y="161"/>
      <point x="686" y="376" type="curve" smooth="yes"/>
      <point x="686" y="540"/>
      <point x="558" y="658"/>
      <point x="352" y="658" type="curve" smooth="yes"/>
      <point x="172" y="658" type="line"/>
    </contour>
    <contour>
      <point x="116" y="29" type="line"/>
      <point x="200" y="629" type="line"/>
      <point x="352" y="629" type="line" smooth="yes"/>
      <point x="537" y="629"/>
      <point x="653" y="525"/>
      <point x="653" y="375" type="curve" smooth="yes"/>
      <point x="653" y="177"/>
      <point x="502" y="29"/>
      <point x="259" y="29" type="curve" smooth="yes"/>
    </contour>
  </outline>
</glyph>
<glyph name="E" format="2">
  <advance width="477"/>
  <unicode hex="0045"/>
  <anchor x="340" y="642" name="top"/>
  <anchor x="419" y="16" name="ogonek"/>
  <outline>
    <contour>
      <point x="80" y="0" type="line"/>
      <point x="421" y="0" type="line"/>
      <point x="425" y="29" type="line"/>
      <point x="115" y="29" type="line"/>
      <point x="156" y="319" type="line"/>
      <point x="439" y="319" type="line"/>
      <point x="443" y="348" type="line"/>
      <point x="160" y="348" type="line"/>
      <point x="199" y="629" type="line"/>
      <point x="489" y="629" type="line"/>
      <point x="493" y="658" type="line"/>
      <point x="172" y="658" type="line"/>
    </contour>
  </outline>
</glyph>
<glyph name="F" format="2">
  <advance width="435"/>
  <unicode hex="0046"/>
  <outline>
    <contour>
      <point x="80" y="0" type="line"/>
      <point x="112" y="0" type="line"/>
      <point x="157" y="323" type="line"/>
      <point x="437" y="323" type="line"/>
      <point x="441" y="352" type="line"/>
      <point x="160" y="352" type="line"/>
      <point x="199" y="629" type="line"/>
      <point x="491" y="629" type="line"/>
      <point x="495" y="658" type="line"/>
      <point x="172" y="658" type="line"/>
    </contour>
  </outline>
</glyph>
<glyph name="G" format="2">
  <advance width="682"/>
  <unicode hex="0047"/>
  <anchor x="474" y="650" name="top"/>
  <anchor x="413" y="8" name="bottom"/>
  <outline>
    <contour>
      <point x="414" y="-12" type="curve" smooth="yes"/>
      <point x="472" y="-12"/>
      <point x="555" y="0"/>
      <point x="628" y="40" type="curve"/>
      <point x="665" y="306" type="line"/>
      <point x="491" y="306" type="line"/>
      <point x="487" y="277" type="line"/>
      <point x="629" y="277" type="line"/>
      <point x="599" y="61" type="line"/>
      <point x="541" y="28"/>
      <point x="478" y="17"/>
      <point x="414" y="17" type="curve" smooth="yes"/>
      <point x="253" y="17"/>
      <point x="134" y="126"/>
      <point x="134" y="289" type="curve" smooth="yes"/>
      <point x="134" y="500"/>
      <point x="281" y="641"/>
      <point x="482" y="641" type="curve" smooth="yes"/>
      <point x="557" y="641"/>
      <point x="617" y="627"/>
      <point x="680" y="592" type="curve"/>
      <point x="684" y="624" type="line"/>
      <point x="621" y="655"/>
      <point x="558" y="670"/>
      <point x="482" y="670" type="curve" smooth="yes"/>
      <point x="269" y="670"/>
      <point x="101" y="521"/>
      <point x="101" y="289" type="curve" smooth="yes"/>
      <point x="101" y="113"/>
      <point x="222" y="-12"/>
    </contour>
  </outline>
</glyph>
<glyph name="H" format="2">
  <advance width="674"/>
  <unicode hex="0048"/>
  <guideline x="337" y="0" angle="82.0" name="" identifier="JMBvttS7Pj"/>
  <anchor x="427" y="642" name="top"/>
  <outline>
    <contour>
      <point x="80" y="0" type="line"/>
      <point x="112" y="0" type="line"/>
      <point x="158" y="325" type="line"/>
      <point x="608" y="325" type="line"/>
      <point x="562" y="0" type="line"/>
      <point x="594" y="0" type="line"/>
      <point x="686" y="658" type="line"/>
      <point x="654" y="658" type="line"/>
      <point x="611" y="354" type="line"/>
      <point x="161" y="354" type="line"/>
      <point x="204" y="658" type="line"/>
      <point x="172" y="658" type="line"/>
    </contour>
  </outline>
</glyph>
<glyph name="J" format="2">
  <advance width="205"/>
  <unicode hex="004A"/>
  <anchor x="199" y="642" name="top"/>
  <outline>
    <contour>
      <point x="-35" y="-220" type="line" smooth="yes"/>
      <point x="45" y="-220"/>
      <point x="100" y="-174"/>
      <point x="112" y="-88" type="curve" smooth="yes"/>
      <point x="217" y="658" type="line"/>
      <point x="185" y="658" type="line"/>
      <point x="80" y="-88" type="line" smooth="yes"/>
      <point x="71" y="-154"/>
      <point x="29" y="-191"/>
      <point x="-31" y="-191" type="curve" smooth="yes"/>
      <point x="-39" y="-191" type="line"/>
      <point x="-43" y="-220" type="line"/>
    </contour>
  </outline>
</glyph>
<glyph name="K" format="2">
  <advance width="491"/>
  <unicode hex="004B"/>
  <anchor x="268" y="16" name="bottom"/>
  <outline>
    <contour>
      <point x="80" y="0" type="line"/>
      <point x="111" y="0" type="line"/>
      <point x="158" y="334" type="line"/>
      <point x="147" y="334" type="line"/>
      <point x="434" y="0" type="line"/>
      <point x="475" y="0" type="line"/>
      <point x="174" y="349" type="line"/>
      <point x="179" y="331" type="line"/>
      <point x="555" y="658" type="line"/>
      <point x="513" y="658" type="line"/>
      <point x="147" y="340" type="line"/>
      <point x="159" y="340" type="line"/>
      <point x="204" y="658" type="line"/>
      <point x="172" y="658" type="line"/>
    </contour>
  </outline>
</glyph>
<glyph name="L" format="2">
  <advance width="439"/>
  <unicode hex="004C"/>
  <anchor x="202" y="642" name="top"/>
  <anchor x="260" y="16" name="bottom"/>
  <anchor x="371" y="642" name="caron.vert"/>
  <outline>
    <contour>
      <point x="80" y="0" type="line"/>
      <point x="419" y="0" type="line"/>
      <point x="423" y="29" type="line"/>
      <point x="116" y="29" type="line"/>
      <point x="204" y="658" type="line"/>
      <point x="172" y="658" type="line"/>
    </contour>
  </outline>
</glyph>
<glyph name="M" format="2">
  <advance width="721"/>
  <unicode hex="004D"/>
  <outline>
    <contour>
      <point x="80" y="0" type="line"/>
      <point x="109" y="0" type="line"/>
      <point x="191" y="587" type="line"/>
      <point x="200" y="649" type="line"/>
      <point x="185" y="649" type="line"/>
      <point x="206" y="587" type="line"/>
      <point x="361" y="124" type="line"/>
      <point x="390" y="124" type="line"/>
      <point x="676" y="587" type="line" smooth="yes"/>
      <point x="715" y="649" type="line"/>
      <point x="700" y="649" type="line"/>
      <point x="691" y="587" type="line"/>
      <point x="609" y="0" type="line"/>
      <point x="641" y="0" type="line"/>
      <point x="733" y="658" type="line"/>
      <point x="687" y="658" type="line"/>
      <point x="400" y="194" type="line"/>
      <point x="368" y="143" type="line"/>
      <point x="385" y="143" type="line"/>
      <point x="369" y="194" type="line"/>
      <point x="214" y="658" type="line"/>
      <point x="172" y="658" type="line"/>
    </contour>
  </outline>
</glyph>
<glyph name="N" format="2">
  <advance width="698"/>
  <unicode hex="004E"/>
  <anchor x="429" y="642" name="top"/>
  <anchor x="349" y="16" name="bottom"/>
  <outline>
    <contour>
      <point x="80" y="0" type="line"/>
      <point x="109" y="0" type="line"/>
      <point x="191" y="587" type="line"/>
      <point x="200" y="647" type="line"/>
      <point x="180" y="647" type="line"/>
      <point x="217" y="587" type="line"/>
      <point x="580" y="0" type="line"/>
      <point x="618" y="0" type="line"/>
      <point x="710" y="658" type="line"/>
      <point x="681" y="658" type="line"/>
      <point x="599" y="71" type="line"/>
      <point x="591" y="11" type="line"/>
      <point x="611" y="11" type="line"/>
      <point x="573" y="71" type="line"/>
      <point x="210" y="658" type="line"/>
      <point x="172" y="658" type="line"/>
    </contour>
  </outline>
</glyph>
<glyph name="O" format="2">
  <advance width="772"/>
  <unicode hex="004F"/>
  <anchor x="463" y="650" name="top"/>
  <outline>
    <contour>
      <point x="401" y="-14" type="curve" smooth="yes"/>
      <point x="623" y="-14"/>
      <point x="764" y="160"/>
      <point x="764" y="371" type="curve" smooth="yes"/>
      <point x="764" y="544"/>
      <point x="651" y="672"/>
      <point x="464" y="672" type="curve" smooth="yes"/>
      <point x="240" y="672"/>
      <point x="101" y="502"/>
      <point x="101" y="287" type="curve" smooth="yes"/>
      <point x="101" y="114"/>
      <point x="213" y="-14"/>
    </contour>
    <contour>
      <point x="401" y="15" type="curve" smooth="yes"/>
      <point x="233" y="15"/>
      <point x="134" y="134"/>
      <point x="134" y="287" type="curve" smooth="yes"/>
      <point x="134" y="494"/>
      <point x="268" y="643"/>
      <point x="464" y="643" type="curve" smooth="yes"/>
      <point x="630" y="643"/>
      <point x="731" y="524"/>
      <point x="731" y="371" type="curve" smooth="yes"/>
      <point x="731" y="167"/>
      <point x="596" y="15"/>
    </contour>
  </outline>
</glyph>
<glyph name="P" format="2">
  <advance width="447"/>
  <unicode hex="0050"/>
  <outline>
    <contour>
      <point x="80" y="0" type="line"/>
      <point x="111" y="0" type="line"/>
      <point x="147" y="259" type="line"/>
      <point x="227" y="259" type="line" smooth="yes"/>
      <point x="375" y="259"/>
      <point x="467" y="343"/>
      <point x="467" y="475" type="curve" smooth="yes"/>
      <point x="467" y="593"/>
      <point x="389" y="658"/>
      <point x="262" y="658" type="curve" smooth="yes"/>
      <point x="172" y="658" type="line"/>
    </contour>
    <contour>
      <point x="151" y="288" type="line"/>
      <point x="199" y="629" type="line"/>
      <point x="262" y="629" type="line" smooth="yes"/>
      <point x="376" y="629"/>
      <point x="434" y="567"/>
      <point x="434" y="474" type="curve" smooth="yes"/>
      <point x="434" y="361"/>
      <point x="355" y="288"/>
      <point x="227" y="288" type="curve" smooth="yes"/>
    </contour>
  </outline>
</glyph>
<glyph name="Q" format="2">
  <advance width="772"/>
  <unicode hex="0051"/>
  <guideline x="754" y="263" angle="82.0" identifier="kRPqQ8vboa"/>
  <outline>
    <contour>
      <point x="676" y="-130" type="curve"/>
      <point x="680" y="-98" type="line"/>
      <point x="580" y="-68"/>
      <point x="517" y="-35"/>
      <point x="464" y="15" type="curve"/>
      <point x="429" y="4" type="line"/>
      <point x="487" y="-56"/>
      <point x="570" y="-101"/>
    </contour>
    <component base="O"/>
  </outline>
</glyph>
<glyph name="R" format="2">
  <advance width="477"/>
  <unicode hex="0052"/>
  <anchor x="315" y="642" name="top"/>
  <anchor x="274" y="16" name="bottom"/>
  <outline>
    <contour>
      <point x="81" y="0" type="line"/>
      <point x="112" y="0" type="line"/>
      <point x="157" y="318" type="line"/>
      <point x="229" y="318" type="line" smooth="yes"/>
      <point x="279" y="318"/>
      <point x="305" y="286"/>
      <point x="325" y="238" type="curve" smooth="yes"/>
      <point x="426" y="0" type="line"/>
      <point x="461" y="0" type="line"/>
      <point x="355" y="248" type="line" smooth="yes"/>
      <point x="336" y="292"/>
      <point x="317" y="322"/>
      <point x="273" y="330" type="curve"/>
      <point x="273" y="323" type="line"/>
      <point x="380" y="329"/>
      <point x="458" y="400"/>
      <point x="458" y="506" type="curve" smooth="yes"/>
      <point x="458" y="600"/>
      <point x="395" y="658"/>
      <point x="294" y="658" type="curve" smooth="yes"/>
      <point x="172" y="658" type="line"/>
    </contour>
    <contour>
      <point x="160" y="347" type="line"/>
      <point x="200" y="629" type="line"/>
      <point x="294" y="629" type="line" smooth="yes"/>
      <point x="375" y="629"/>
      <point x="425" y="582"/>
      <point x="425" y="506" type="curve" smooth="yes"/>
      <point x="425" y="415"/>
      <point x="360" y="347"/>
      <point x="255" y="347" type="curve" smooth="yes"/>
    </contour>
  </outline>
</glyph>
<glyph name="S" format="2">
  <advance width="499"/>
  <unicode hex="0053"/>
  <anchor x="330" y="650" name="top"/>
  <anchor x="265" y="16" name="bottom"/>
  <outline>
    <contour>
      <point x="260" y="-16" type="curve" smooth="yes"/>
      <point x="377" y="-16"/>
      <point x="461" y="61"/>
      <point x="461" y="173" type="curve" smooth="yes"/>
      <point x="461" y="246"/>
      <point x="420" y="304"/>
      <point x="311" y="349" type="curve" smooth="yes"/>
      <point x="299" y="354" type="line" smooth="yes"/>
      <point x="208" y="392"/>
      <point x="171" y="437"/>
      <point x="171" y="495" type="curve" smooth="yes"/>
      <point x="171" y="584"/>
      <point x="238" y="644"/>
      <point x="333" y="644" type="curve" smooth="yes"/>
      <point x="400" y="644"/>
      <point x="455" y="626"/>
      <point x="498" y="581" type="curve"/>
      <point x="503" y="622" type="line"/>
      <point x="459" y="657"/>
      <point x="399" y="674"/>
      <point x="333" y="674" type="curve" smooth="yes"/>
      <point x="204" y="674"/>
      <point x="139" y="592"/>
      <point x="139" y="495" type="curve" smooth="yes"/>
      <point x="139" y="421"/>
      <point x="179" y="369"/>
      <point x="286" y="324" type="curve" smooth="yes"/>
      <point x="298" y="319" type="line" smooth="yes"/>
      <point x="393" y="279"/>
      <point x="429" y="232"/>
      <point x="429" y="173" type="curve" smooth="yes"/>
      <point x="429" y="68"/>
      <point x="342" y="14"/>
      <point x="260" y="14" type="curve" smooth="yes"/>
      <point x="186" y="14"/>
      <point x="116" y="39"/>
      <point x="71" y="81" type="curve"/>
      <point x="66" y="41" type="line"/>
      <point x="119" y="5"/>
      <point x="187" y="-16"/>
    </contour>
  </outline>
</glyph>
<glyph name="T" format="2">
  <advance width="536"/>
  <unicode hex="0054"/>
  <anchor x="357" y="642" name="top"/>
  <anchor x="271" y="16" name="bottom"/>
  <outline>
    <contour>
      <point x="252" y="0" type="line"/>
      <point x="284" y="0" type="line"/>
      <point x="372" y="629" type="line"/>
      <point x="604" y="629" type="line"/>
      <point x="608" y="658" type="line"/>
      <point x="112" y="658" type="line"/>
      <point x="108" y="629" type="line"/>
      <point x="340" y="629" type="line"/>
    </contour>
  </outline>
</glyph>
<glyph name="U" format="2">
  <advance width="661"/>
  <unicode hex="0055"/>
  <guideline x="330" y="0" angle="82.0" name="" identifier="oYZKR9ebBy"/>
  <anchor x="421" y="642" name="top"/>
  <outline>
    <contour>
      <point x="344" y="-12" type="curve" smooth="yes"/>
      <point x="484" y="-12"/>
      <point x="596" y="84"/>
      <point x="619" y="245" type="curve" smooth="yes"/>
      <point x="677" y="658" type="line"/>
      <point x="648" y="658" type="line"/>
      <point x="590" y="245" type="line" smooth="yes"/>
      <point x="571" y="108"/>
      <point x="472" y="18"/>
      <point x="344" y="18" type="curve" smooth="yes"/>
      <point x="194" y="18"/>
      <point x="122" y="102"/>
      <point x="142" y="245" type="curve" smooth="yes"/>
      <point x="200" y="658" type="line"/>
      <point x="168" y="658" type="line"/>
      <point x="110" y="245" type="line" smooth="yes"/>
      <point x="88" y="88"/>
      <point x="172" y="-12"/>
    </contour>
  </outline>
</glyph>
<glyph name="V" format="2">
  <advance width="608"/>
  <unicode hex="0056"/>
  <outline>
    <contour>
      <point x="286" y="0" type="line"/>
      <point x="320" y="0" type="line"/>
      <point x="680" y="658" type="line"/>
      <point x="647" y="658" type="line"/>
      <point x="326" y="71" type="line"/>
      <point x="296" y="16" type="line"/>
      <point x="314" y="16" type="line"/>
      <point x="300" y="71" type="line"/>
      <point x="145" y="658" type="line"/>
      <point x="112" y="658" type="line"/>
    </contour>
  </outline>
</glyph>
<glyph name="W" format="2">
  <advance width="912"/>
  <unicode hex="0057"/>
  <anchor x="543" y="642" name="top"/>
  <outline>
    <contour>
      <point x="229" y="0" type="line"/>
      <point x="263" y="0" type="line"/>
      <point x="532" y="588" type="line"/>
      <point x="561" y="653" type="line"/>
      <point x="534" y="653" type="line"/>
      <point x="547" y="588" type="line"/>
      <point x="651" y="0" type="line"/>
      <point x="683" y="0" type="line"/>
      <point x="984" y="658" type="line"/>
      <point x="951" y="658" type="line"/>
      <point x="683" y="71" type="line"/>
      <point x="660" y="21" type="line"/>
      <point x="678" y="20" type="line"/>
      <point x="670" y="71" type="line"/>
      <point x="566" y="658" type="line"/>
      <point x="532" y="658" type="line"/>
      <point x="263" y="71" type="line"/>
      <point x="240" y="20" type="line"/>
      <point x="258" y="20" type="line"/>
      <point x="249" y="71" type="line"/>
      <point x="144" y="658" type="line"/>
      <point x="112" y="658" type="line"/>
    </contour>
  </outline>
</glyph>
<glyph name="X" format="2">
  <advance width="573"/>
  <unicode hex="0058"/>
  <outline>
    <contour>
      <point x="36" y="0" type="line"/>
      <point x="74" y="0" type="line"/>
      <point x="303" y="281" type="line"/>
      <point x="337" y="322" type="line"/>
      <point x="347" y="332" type="line"/>
      <point x="614" y="658" type="line"/>
      <point x="576" y="658" type="line"/>
      <point x="364" y="398" type="line"/>
      <point x="329" y="355" type="line"/>
      <point x="319" y="345" type="line"/>
    </contour>
    <contour>
      <point x="500" y="0" type="line"/>
      <point x="537" y="0" type="line"/>
      <point x="346" y="348" type="line"/>
      <point x="338" y="357" type="line"/>
      <point x="317" y="398" type="line"/>
      <point x="176" y="658" type="line"/>
      <point x="139" y="658" type="line"/>
      <point x="317" y="330" type="line"/>
      <point x="325" y="321" type="line"/>
      <point x="347" y="281" type="line"/>
    </contour>
  </outline>
</glyph>
<glyph name="Y" format="2">
  <advance width="543"/>
  <unicode hex="0059"/>
  <anchor x="346" y="642" name="top"/>
  <outline>
    <contour>
      <point x="254" y="0" type="line"/>
      <point x="286" y="0" type="line"/>
      <point x="330" y="314" type="line"/>
      <point x="317" y="289" type="line"/>
      <point x="619" y="658" type="line"/>
      <point x="581" y="658" type="line"/>
      <point x="345" y="368" type="line"/>
      <point x="306" y="320" type="line"/>
      <point x="325" y="320" type="line"/>
      <point x="300" y="368" type="line"/>
      <point x="144" y="658" type="line"/>
      <point x="108" y="658" type="line"/>
      <point x="306" y="289" type="line"/>
      <point x="298" y="314" type="line"/>
    </contour>
  </outline>
</glyph>
<glyph name="Z" format="2">
  <advance width="585"/>
  <unicode hex="005A"/>
  <anchor x="376" y="642" name="top"/>
  <outline>
    <contour>
      <point x="62" y="0" type="line"/>
      <point x="525" y="0" type="line"/>
      <point x="529" y="29" type="line"/>
      <point x="100" y="29" type="line"/>
      <point x="100" y="11" type="line"/>
      <point x="141" y="61" type="line"/>
      <point x="614" y="643" type="line"/>
      <point x="616" y="658" type="line"/>
      <point x="152" y="658" type="line"/>
      <point x="148" y="629" type="line"/>
      <point x="579" y="629" type="line"/>
      <point x="580" y="651" type="line"/>
      <point x="536" y="597" type="line"/>
      <point x="65" y="18" type="line"/>
    </contour>
  </outline>
</glyph>
<glyph name="bracketleft" format="2">
  <advance width="317"/>
  <unicode hex="005B"/>
  <outline>
    <contour>
      <point x="69" y="-220" type="line"/>
      <point x="246" y="-220" type="line"/>
      <point x="250" y="-192" type="line"/>
      <point x="105" y="-192" type="line"/>
      <point x="230" y="696" type="line"/>
      <point x="375" y="696" type="line"/>
      <point x="379" y="724" type="line"/>
      <point x="202" y="724" type="line"/>
    </contour>
  </outline>
</glyph>
<glyph name="bracketright" format="2">
  <advance width="317"/>
  <unicode hex="005D"/>
  <outline>
    <contour>
      <point x="9" y="-220" type="line"/>
      <point x="186" y="-220" type="line"/>
      <point x="319" y="724" type="line"/>
      <point x="142" y="724" type="line"/>
      <point x="138" y="696" type="line"/>
      <point x="283" y="696" type="line"/>
      <point x="158" y="-192" type="line"/>
      <point x="13" y="-192" type="line"/>
    </contour>
  </outline>
</glyph>
<glyph name="a" format="2">
  <advance width="505"/>
  <unicode hex="0061"/>
  <anchor x="353" y="446" name="top"/>
  <anchor x="438" y="16" name="ogonek"/>
  <outline>
    <contour>
      <point x="240" y="-10" type="curve" smooth="yes"/>
      <point x="306" y="-10"/>
      <point x="382" y="31"/>
      <point x="420" y="145" type="curve"/>
      <point x="414" y="105" type="line" smooth="yes"/>
      <point x="409" y="72"/>
      <point x="406" y="34"/>
      <point x="406" y="0" type="curve"/>
      <point x="437" y="0" type="line"/>
      <point x="437" y="35"/>
      <point x="440" y="68"/>
      <point x="445" y="105" type="curve" smooth="yes"/>
      <point x="494" y="454" type="line"/>
      <point x="444" y="468"/>
      <point x="404" y="472"/>
      <point x="361" y="472" type="curve" smooth="yes"/>
      <point x="204" y="472"/>
      <point x="76" y="339"/>
      <point x="76" y="176" type="curve" smooth="yes"/>
      <point x="76" y="69"/>
      <point x="146" y="-10"/>
    </contour>
    <contour>
      <point x="240" y="19" type="curve" smooth="yes"/>
      <point x="174" y="19"/>
      <point x="107" y="74"/>
      <point x="107" y="176" type="curve" smooth="yes"/>
      <point x="107" y="323"/>
      <point x="222" y="443"/>
      <point x="361" y="443" type="curve" smooth="yes"/>
      <point x="397" y="443"/>
      <point x="428" y="440"/>
      <point x="459" y="431" type="curve"/>
      <point x="449" y="356" type="line" smooth="yes"/>
      <point x="408" y="50"/>
      <point x="304" y="19"/>
    </contour>
  </outline>
</glyph>
<glyph name="b" format="2">
  <advance width="499"/>
  <unicode hex="0062"/>
  <outline>
    <contour>
      <point x="220" y="-10" type="curve" smooth="yes"/>
      <point x="366" y="-10"/>
      <point x="490" y="126"/>
      <point x="490" y="292" type="curve" smooth="yes"/>
      <point x="490" y="397"/>
      <point x="424" y="472"/>
      <point x="329" y="472" type="curve" smooth="yes"/>
      <point x="261" y="472"/>
      <point x="182" y="437"/>
      <point x="142" y="306" type="curve"/>
      <point x="152" y="357" type="line"/>
      <point x="204" y="724" type="line"/>
      <point x="173" y="724" type="line"/>
      <point x="72" y="8" type="line"/>
      <point x="130" y="-6"/>
      <point x="172" y="-10"/>
    </contour>
    <contour>
      <point x="220" y="19" type="curve" smooth="yes"/>
      <point x="179" y="19"/>
      <point x="140" y="24"/>
      <point x="106" y="31" type="curve"/>
      <point x="117" y="106" type="line" smooth="yes"/>
      <point x="162" y="410"/>
      <point x="263" y="443"/>
      <point x="329" y="443" type="curve" smooth="yes"/>
      <point x="406" y="443"/>
      <point x="459" y="380"/>
      <point x="459" y="290" type="curve" smooth="yes"/>
      <point x="459" y="141"/>
      <point x="348" y="19"/>
    </contour>
  </outline>
</glyph>
<glyph name="c" format="2">
  <advance width="465"/>
  <unicode hex="0063"/>
  <anchor x="310" y="446" name="top"/>
  <anchor x="246" y="16" name="bottom"/>
  <outline>
    <contour>
      <point x="283" y="-10" type="curve" smooth="yes"/>
      <point x="331" y="-10"/>
      <point x="379" y="2"/>
      <point x="425" y="32" type="curve"/>
      <point x="430" y="68" type="line"/>
      <point x="386" y="34"/>
      <point x="336" y="19"/>
      <point x="283" y="19" type="curve" smooth="yes"/>
      <point x="177" y="19"/>
      <point x="110" y="89"/>
      <point x="110" y="193" type="curve" smooth="yes"/>
      <point x="110" y="338"/>
      <point x="198" y="443"/>
      <point x="330" y="443" type="curve" smooth="yes"/>
      <point x="383" y="443"/>
      <point x="430" y="427"/>
      <point x="476" y="395" type="curve"/>
      <point x="481" y="427" type="line"/>
      <point x="432" y="455"/>
      <point x="390" y="472"/>
      <point x="330" y="472" type="curve" smooth="yes"/>
      <point x="184" y="472"/>
      <point x="79" y="354"/>
      <point x="79" y="193" type="curve" smooth="yes"/>
      <point x="79" y="69"/>
      <point x="157" y="-10"/>
    </contour>
  </outline>
</glyph>
<glyph name="d" format="2">
  <advance width="505"/>
  <unicode hex="0064"/>
  <anchor x="637" y="708" name="caron.vert"/>
  <outline>
    <contour>
      <point x="240" y="-10" type="curve" smooth="yes"/>
      <point x="306" y="-10"/>
      <point x="383" y="28"/>
      <point x="419" y="142" type="curve"/>
      <point x="414" y="105" type="line" smooth="yes"/>
      <point x="410" y="72"/>
      <point x="406" y="34"/>
      <point x="406" y="0" type="curve"/>
      <point x="437" y="0" type="line"/>
      <point x="437" y="35"/>
      <point x="440" y="68"/>
      <point x="445" y="105" type="curve" smooth="yes"/>
      <point x="532" y="724" type="line"/>
      <point x="501" y="724" type="line"/>
      <point x="461" y="442" type="line"/>
      <point x="424" y="462"/>
      <point x="386" y="472"/>
      <point x="347" y="472" type="curve" smooth="yes"/>
      <point x="202" y="472"/>
      <point x="76" y="339"/>
      <point x="76" y="176" type="curve" smooth="yes"/>
      <point x="76" y="70"/>
      <point x="146" y="-10"/>
    </contour>
    <contour>
      <point x="240" y="19" type="curve" smooth="yes"/>
      <point x="174" y="19"/>
      <point x="107" y="74"/>
      <point x="107" y="176" type="curve" smooth="yes"/>
      <point x="107" y="323"/>
      <point x="220" y="443"/>
      <point x="346" y="443" type="curve" smooth="yes"/>
      <point x="388" y="443"/>
      <point x="425" y="432"/>
      <point x="457" y="411" type="curve"/>
      <point x="449" y="356" type="line" smooth="yes"/>
      <point x="404" y="47"/>
      <point x="304" y="19"/>
    </contour>
  </outline>
</glyph>
<glyph name="e" format="2">
  <advance width="474"/>
  <unicode hex="0065"/>
  <anchor x="294" y="446" name="top"/>
  <outline>
    <contour>
      <point x="276" y="-10" type="curve" smooth="yes"/>
      <point x="335" y="-10"/>
      <point x="380" y="5"/>
      <point x="428" y="44" type="curve"/>
      <point x="434" y="86" type="line"/>
      <point x="383" y="39"/>
      <point x="336" y="19"/>
      <point x="276" y="19" type="curve" smooth="yes"/>
      <point x="171" y="19"/>
      <point x="112" y="87"/>
      <point x="112" y="208" type="curve" smooth="yes"/>
      <point x="112" y="213" type="line" smooth="yes"/>
      <point x="112" y="336"/>
      <point x="197" y="443"/>
      <point x="314" y="443" type="curve" smooth="yes"/>
      <point x="379" y="443"/>
      <point x="419" y="412"/>
      <point x="419" y="363" type="curve" smooth="yes"/>
      <point x="419" y="290"/>
      <point x="354" y="257"/>
      <point x="197" y="246" type="curve" smooth="yes"/>
      <point x="108" y="240" type="line"/>
      <point x="109" y="212" type="line"/>
      <point x="198" y="218" type="line" smooth="yes"/>
      <point x="377" y="230"/>
      <point x="451" y="272"/>
      <point x="451" y="364" type="curve" smooth="yes"/>
      <point x="451" y="430"/>
      <point x="399" y="472"/>
      <point x="314" y="472" type="curve" smooth="yes"/>
      <point x="180" y="472"/>
      <point x="80" y="359"/>
      <point x="80" y="207" type="curve" smooth="yes"/>
      <point x="80" y="73"/>
      <point x="151" y="-10"/>
    </contour>
  </outline>
</glyph>
<glyph name="g" format="2">
  <advance width="502"/>
  <unicode hex="0067"/>
  <anchor x="320" y="446" name="top"/>
  <outline>
    <contour>
      <point x="212" y="-228" type="curve" smooth="yes"/>
      <point x="321" y="-228"/>
      <point x="411" y="-162"/>
      <point x="435" y="7" type="curve" smooth="yes"/>
      <point x="498" y="454" type="line"/>
      <point x="448" y="468"/>
      <point x="408" y="472"/>
      <point x="365" y="472" type="curve" smooth="yes"/>
      <point x="208" y="472"/>
      <point x="80" y="339"/>
      <point x="80" y="176" type="curve" smooth="yes"/>
      <point x="80" y="71"/>
      <point x="150" y="-10"/>
      <point x="244" y="-10" type="curve" smooth="yes"/>
      <point x="310" y="-10"/>
      <point x="386" y="26"/>
      <point x="423" y="142" type="curve"/>
      <point x="404" y="9" type="line" smooth="yes"/>
      <point x="382" y="-148"/>
      <point x="301" y="-199"/>
      <point x="212" y="-199" type="curve" smooth="yes"/>
      <point x="151" y="-199"/>
      <point x="97" y="-185"/>
      <point x="46" y="-152" type="curve"/>
      <point x="41" y="-186" type="line"/>
      <point x="95" y="-214"/>
      <point x="146" y="-228"/>
    </contour>
    <contour>
      <point x="244" y="19" type="curve" smooth="yes"/>
      <point x="178" y="19"/>
      <point x="111" y="74"/>
      <point x="111" y="176" type="curve" smooth="yes"/>
      <point x="111" y="323"/>
      <point x="226" y="443"/>
      <point x="365" y="443" type="curve" smooth="yes"/>
      <point x="401" y="443"/>
      <point x="433" y="440"/>
      <point x="464" y="431" type="curve"/>
      <point x="453" y="356" type="line" smooth="yes"/>
      <point x="408" y="48"/>
      <point x="308" y="19"/>
    </contour>
  </outline>
</glyph>
<glyph name="h" format="2">
  <advance width="481"/>
  <unicode hex="0068"/>
  <anchor x="176" y="646" name="top"/>
  <outline>
    <contour>
      <point x="70" y="0" type="line"/>
      <point x="101" y="0" type="line"/>
      <point x="118" y="124" type="line" smooth="yes"/>
      <point x="157" y="411"/>
      <point x="260" y="444"/>
      <point x="321" y="444" type="curve" smooth="yes"/>
      <point x="391" y="444"/>
      <point x="441" y="393"/>
      <point x="423" y="294" type="curve" smooth="yes"/>
      <point x="392" y="124" type="line" smooth="yes"/>
      <point x="384" y="80"/>
      <point x="381" y="43"/>
      <point x="381" y="0" type="curve"/>
      <point x="412" y="0" type="line"/>
      <point x="412" y="43"/>
      <point x="415" y="78"/>
      <point x="423" y="124" type="curve" smooth="yes"/>
      <point x="454" y="294" type="line" smooth="yes"/>
      <point x="474" y="405"/>
      <point x="412" y="472"/>
      <point x="321" y="472" type="curve" smooth="yes"/>
      <point x="258" y="472"/>
      <point x="184" y="436"/>
      <point x="144" y="320" type="curve"/>
      <point x="153" y="368"/>
      <point x="160" y="417"/>
      <point x="166" y="462" type="curve" smooth="yes"/>
      <point x="203" y="724" type="line"/>
      <point x="172" y="724" type="line"/>
    </contour>
  </outline>
</glyph>
<glyph name="i" format="2">
  <advance width="182"/>
  <unicode hex="0069"/>
  <anchor x="143" y="446" name="top"/>
  <anchor x="112" y="16" name="ogonek"/>
  <outline>
    <contour>
      <point x="81" y="0" type="curve"/>
      <point x="112" y="0" type="line"/>
      <point x="112" y="42"/>
      <point x="116" y="84"/>
      <point x="122" y="124" type="curve" smooth="yes"/>
      <point x="170" y="462" type="line"/>
      <point x="139" y="462" type="line"/>
      <point x="91" y="124" type="line" smooth="yes"/>
      <point x="86" y="87"/>
      <point x="81" y="42"/>
    </contour>
    <contour>
      <point x="160" y="636" type="line"/>
      <point x="198" y="636" type="line"/>
      <point x="203" y="674" type="line"/>
      <point x="165" y="674" type="line"/>
    </contour>
  </outline>
</glyph>
<glyph name="j" format="2">
  <advance width="181"/>
  <unicode hex="006A"/>
  <guideline x="152" y="443" angle="82.0" name="" identifier="yk6OMRxqcK"/>
  <anchor x="125" y="446" name="top"/>
  <outline>
    <contour>
      <point x="-59" y="-220" type="line" smooth="yes"/>
      <point x="21" y="-220"/>
      <point x="80" y="-170"/>
      <point x="94" y="-70" type="curve" smooth="yes"/>
      <point x="169" y="462" type="line"/>
      <point x="138" y="462" type="line"/>
      <point x="63" y="-70" type="line" smooth="yes"/>
      <point x="53" y="-144"/>
      <point x="7" y="-191"/>
      <point x="-55" y="-191" type="curve" smooth="yes"/>
      <point x="-63" y="-191" type="line"/>
      <point x="-67" y="-220" type="line"/>
    </contour>
    <contour>
      <point x="160" y="636" type="line"/>
      <point x="198" y="636" type="line"/>
      <point x="203" y="674" type="line"/>
      <point x="165" y="674" type="line"/>
    </contour>
  </outline>
</glyph>
<glyph name="k" format="2">
  <advance width="420"/>
  <unicode hex="006B"/>
  <anchor x="231" y="16" name="bottom"/>
  <outline>
    <contour>
      <point x="70" y="0" type="line"/>
      <point x="101" y="0" type="line"/>
      <point x="135" y="241" type="line"/>
      <point x="127" y="241" type="line"/>
      <point x="354" y="0" type="line"/>
      <point x="396" y="0" type="line"/>
      <point x="161" y="250" type="line"/>
      <point x="162" y="236" type="line"/>
      <point x="270" y="305"/>
      <point x="353" y="369"/>
      <point x="439" y="462" type="curve"/>
      <point x="400" y="462" type="line"/>
      <point x="324" y="378"/>
      <point x="236" y="315"/>
      <point x="130" y="247" type="curve"/>
      <point x="136" y="249" type="line"/>
      <point x="203" y="724" type="line"/>
      <point x="172" y="724" type="line"/>
    </contour>
  </outline>
</glyph>
<glyph name="l" format="2">
  <advance width="180"/>
  <unicode hex="006C"/>
  <anchor x="186" y="708" name="top"/>
  <anchor x="290" y="707" name="caron.vert"/>
  <anchor x="94" y="16" name="bottom"/>
  <outline>
    <contour>
      <point x="79" y="0" type="curve"/>
      <point x="110" y="0" type="line"/>
      <point x="110" y="42"/>
      <point x="114" y="84"/>
      <point x="120" y="124" type="curve" smooth="yes"/>
      <point x="204" y="724" type="line"/>
      <point x="173" y="724" type="line"/>
      <point x="89" y="132" type="line" smooth="yes"/>
      <point x="84" y="95"/>
      <point x="79" y="42"/>
    </contour>
  </outline>
</glyph>
<glyph name="m" format="2">
  <advance width="804"/>
  <unicode hex="006D"/>
  <outline>
    <contour>
      <point x="83" y="0" type="line"/>
      <point x="114" y="0" type="line"/>
      <point x="131" y="124" type="line" smooth="yes"/>
      <point x="160" y="336"/>
      <point x="225" y="443"/>
      <point x="329" y="443" type="curve" smooth="yes"/>
      <point x="405" y="443"/>
      <point x="445" y="386"/>
      <point x="432" y="294" type="curve" smooth="yes"/>
      <point x="391" y="0" type="line"/>
      <point x="422" y="0" type="line"/>
      <point x="439" y="124" type="line" smooth="yes"/>
      <point x="468" y="336"/>
      <point x="537" y="443"/>
      <point x="641" y="443" type="curve" smooth="yes"/>
      <point x="720" y="443"/>
      <point x="759" y="386"/>
      <point x="744" y="294" type="curve" smooth="yes"/>
      <point x="716" y="124" type="line" smooth="yes"/>
      <point x="709" y="80"/>
      <point x="705" y="43"/>
      <point x="705" y="0" type="curve"/>
      <point x="736" y="0" type="line"/>
      <point x="736" y="43"/>
      <point x="739" y="78"/>
      <point x="747" y="124" type="curve" smooth="yes"/>
      <point x="775" y="294" type="line" smooth="yes"/>
      <point x="794" y="407"/>
      <point x="734" y="472"/>
      <point x="641" y="472" type="curve" smooth="yes"/>
      <point x="580" y="472"/>
      <point x="488" y="432"/>
      <point x="449" y="271" type="curve"/>
      <point x="460" y="271" type="line"/>
      <point x="490" y="414"/>
      <point x="415" y="472"/>
      <point x="329" y="472" type="curve" smooth="yes"/>
      <point x="269" y="472"/>
      <point x="197" y="436"/>
      <point x="157" y="320" type="curve"/>
      <point x="164" y="357" type="line" smooth="yes"/>
      <point x="170" y="391"/>
      <point x="172" y="431"/>
      <point x="172" y="462" type="curve"/>
      <point x="141" y="462" type="line"/>
      <point x="141" y="431"/>
      <point x="139" y="397"/>
      <point x="133" y="357" type="curve" smooth="yes"/>
    </contour>
  </outline>
</glyph>
<glyph name="n" format="2">
  <advance width="483"/>
  <unicode hex="006E"/>
  <anchor x="328" y="446" name="top"/>
  <anchor x="251" y="16" name="bottom"/>
  <outline>
    <contour>
      <point x="83" y="0" type="line"/>
      <point x="114" y="0" type="line"/>
      <point x="131" y="124" type="line" smooth="yes"/>
      <point x="170" y="406"/>
      <point x="266" y="443"/>
      <point x="322" y="443" type="curve" smooth="yes"/>
      <point x="394" y="443"/>
      <point x="439" y="386"/>
      <point x="423" y="294" type="curve" smooth="yes"/>
      <point x="393" y="124" type="line" smooth="yes"/>
      <point x="385" y="80"/>
      <point x="384" y="43"/>
      <point x="384" y="0" type="curve"/>
      <point x="415" y="0" type="line"/>
      <point x="415" y="43"/>
      <point x="416" y="78"/>
      <point x="424" y="124" type="curve" smooth="yes"/>
      <point x="454" y="294" type="line" smooth="yes"/>
      <point x="472" y="396"/>
      <point x="423" y="472"/>
      <point x="322" y="472" type="curve" smooth="yes"/>
      <point x="264" y="472"/>
      <point x="196" y="436"/>
      <point x="158" y="320" type="curve"/>
      <point x="164" y="357" type="line" smooth="yes"/>
      <point x="169" y="386"/>
      <point x="172" y="431"/>
      <point x="172" y="462" type="curve"/>
      <point x="141" y="462" type="line"/>
      <point x="141" y="431"/>
      <point x="139" y="397"/>
      <point x="133" y="357" type="curve" smooth="yes"/>
    </contour>
  </outline>
</glyph>
<glyph name="o" format="2">
  <advance width="528"/>
  <unicode hex="006F"/>
  <guideline x="266" y="0" angle="2.3863624271819e-08" name="" identifier="4bXGDtxiNW"/>
  <anchor x="317" y="454" name="top"/>
  <outline>
    <contour>
      <point x="281" y="-10" type="curve" smooth="yes"/>
      <point x="413" y="-10"/>
      <point x="514" y="109"/>
      <point x="514" y="264" type="curve" smooth="yes"/>
      <point x="514" y="394"/>
      <point x="430" y="472"/>
      <point x="312" y="472" type="curve" smooth="yes"/>
      <point x="180" y="472"/>
      <point x="79" y="353"/>
      <point x="79" y="198" type="curve" smooth="yes"/>
      <point x="79" y="67"/>
      <point x="164" y="-10"/>
    </contour>
    <contour>
      <point x="281" y="19" type="curve" smooth="yes"/>
      <point x="176" y="19"/>
      <point x="110" y="88"/>
      <point x="110" y="199" type="curve" smooth="yes"/>
      <point x="110" y="337"/>
      <point x="198" y="443"/>
      <point x="312" y="443" type="curve" smooth="yes"/>
      <point x="418" y="443"/>
      <point x="483" y="374"/>
      <point x="483" y="263" type="curve" smooth="yes"/>
      <point x="483" y="125"/>
      <point x="395" y="19"/>
    </contour>
  </outline>
</glyph>
<glyph name="p" format="2">
  <advance width="514"/>
  <unicode hex="0070"/>
  <outline>
    <contour>
      <point x="53" y="-220" type="line"/>
      <point x="84" y="-220" type="line"/>
      <point x="117" y="15" type="line"/>
      <point x="154" y="-3"/>
      <point x="187" y="-10"/>
      <point x="234" y="-10" type="curve" smooth="yes"/>
      <point x="392" y="-10"/>
      <point x="503" y="123"/>
      <point x="503" y="286" type="curve" smooth="yes"/>
      <point x="503" y="395"/>
      <point x="437" y="472"/>
      <point x="343" y="472" type="curve" smooth="yes"/>
      <point x="274" y="472"/>
      <point x="193" y="437"/>
      <point x="155" y="306" type="curve"/>
      <point x="164" y="357" type="line" smooth="yes"/>
      <point x="170" y="390"/>
      <point x="172" y="429"/>
      <point x="172" y="462" type="curve"/>
      <point x="141" y="462" type="line"/>
      <point x="141" y="429"/>
      <point x="139" y="394"/>
      <point x="133" y="352" type="curve" smooth="yes"/>
    </contour>
    <contour>
      <point x="234" y="19" type="curve" smooth="yes"/>
      <point x="192" y="19"/>
      <point x="157" y="26"/>
      <point x="122" y="45" type="curve"/>
      <point x="130" y="105" type="line" smooth="yes"/>
      <point x="171" y="412"/>
      <point x="276" y="443"/>
      <point x="343" y="443" type="curve" smooth="yes"/>
      <point x="409" y="443"/>
      <point x="472" y="390"/>
      <point x="472" y="286" type="curve" smooth="yes"/>
      <point x="472" y="139"/>
      <point x="374" y="19"/>
    </contour>
  </outline>
</glyph>
<glyph name="q" format="2">
  <advance width="494"/>
  <unicode hex="0071"/>
  <outline>
    <contour>
      <point x="368" y="-220" type="line"/>
      <point x="399" y="-220" type="line"/>
      <point x="494" y="454" type="line"/>
      <point x="442" y="467"/>
      <point x="404" y="472"/>
      <point x="361" y="472" type="curve" smooth="yes"/>
      <point x="204" y="472"/>
      <point x="76" y="339"/>
      <point x="76" y="176" type="curve" smooth="yes"/>
      <point x="76" y="69"/>
      <point x="146" y="-10"/>
      <point x="240" y="-10" type="curve" smooth="yes"/>
      <point x="306" y="-10"/>
      <point x="382" y="26"/>
      <point x="419" y="142" type="curve"/>
    </contour>
    <contour>
      <point x="240" y="19" type="curve" smooth="yes"/>
      <point x="174" y="19"/>
      <point x="107" y="74"/>
      <point x="107" y="176" type="curve" smooth="yes"/>
      <point x="107" y="323"/>
      <point x="222" y="443"/>
      <point x="361" y="443" type="curve" smooth="yes"/>
      <point x="397" y="443"/>
      <point x="422" y="440"/>
      <point x="459" y="430" type="curve"/>
      <point x="449" y="356" type="line" smooth="yes"/>
      <point x="408" y="50"/>
      <point x="304" y="19"/>
    </contour>
  </outline>
</glyph>
<glyph name="r" format="2">
  <advance width="319"/>
  <unicode hex="0072"/>
  <anchor x="237" y="446" name="top"/>
  <anchor x="101" y="16" name="bottom"/>
  <outline>
    <contour>
      <point x="83" y="0" type="line"/>
      <point x="114" y="0" type="line"/>
      <point x="131" y="124" type="line" smooth="yes"/>
      <point x="173" y="430"/>
      <point x="278" y="443"/>
      <point x="310" y="443" type="curve" smooth="yes"/>
      <point x="325" y="443"/>
      <point x="344" y="440"/>
      <point x="360" y="434" type="curve"/>
      <point x="364" y="464" type="line"/>
      <point x="347" y="470"/>
      <point x="327" y="472"/>
      <point x="311" y="472" type="curve" smooth="yes"/>
      <point x="262" y="472"/>
      <point x="197" y="441"/>
      <point x="157" y="320" type="curve"/>
      <point x="164" y="357" type="line" smooth="yes"/>
      <point x="170" y="391"/>
      <point x="172" y="431"/>
      <point x="172" y="462" type="curve"/>
      <point x="141" y="462" type="line"/>
      <point x="141" y="425"/>
      <point x="138" y="391"/>
      <point x="133" y="357" type="curve" smooth="yes"/>
    </contour>
  </outline>
</glyph>
<glyph name="s" format="2">
  <advance width="359"/>
  <unicode hex="0073"/>
  <anchor x="226" y="446" name="top"/>
  <anchor x="179" y="16" name="bottom"/>
  <outline>
    <contour>
      <point x="180" y="-10" type="curve" smooth="yes"/>
      <point x="273" y="-10"/>
      <point x="330" y="45"/>
      <point x="330" y="120" type="curve" smooth="yes"/>
      <point x="330" y="180"/>
      <point x="298" y="218"/>
      <point x="219" y="252" type="curve" smooth="yes"/>
      <point x="205" y="258" type="line" smooth="yes"/>
      <point x="150" y="281"/>
      <point x="127" y="308"/>
      <point x="127" y="351" type="curve" smooth="yes"/>
      <point x="127" y="408"/>
      <point x="177" y="443"/>
      <point x="243" y="443" type="curve" smooth="yes"/>
      <point x="279" y="443"/>
      <point x="330" y="428"/>
      <point x="358" y="406" type="curve"/>
      <point x="363" y="441" type="line"/>
      <point x="331" y="460"/>
      <point x="280" y="472"/>
      <point x="243" y="472" type="curve" smooth="yes"/>
      <point x="153" y="472"/>
      <point x="97" y="419"/>
      <point x="97" y="349" type="curve" smooth="yes"/>
      <point x="97" y="292"/>
      <point x="125" y="258"/>
      <point x="192" y="229" type="curve" smooth="yes"/>
      <point x="206" y="223" type="line" smooth="yes"/>
      <point x="273" y="194"/>
      <point x="300" y="163"/>
      <point x="300" y="118" type="curve" smooth="yes"/>
      <point x="300" y="56"/>
      <point x="249" y="19"/>
      <point x="180" y="19" type="curve" smooth="yes"/>
      <point x="139" y="19"/>
      <point x="84" y="37"/>
      <point x="53" y="64" type="curve"/>
      <point x="48" y="28" type="line"/>
      <point x="83" y="5"/>
      <point x="140" y="-10"/>
    </contour>
  </outline>
</glyph>
<glyph name="t" format="2">
  <advance width="279"/>
  <unicode hex="0074"/>
  <anchor x="179" y="16" name="bottom"/>
  <anchor x="344" y="708" name="caron.vert"/>
  <outline>
    <contour>
      <point x="182" y="-9" type="curve" smooth="yes"/>
      <point x="206" y="-9"/>
      <point x="232" y="-1"/>
      <point x="255" y="14" type="curve"/>
      <point x="259" y="46" type="line"/>
      <point x="234" y="28"/>
      <point x="210" y="20"/>
      <point x="185" y="20" type="curve" smooth="yes"/>
      <point x="147" y="20"/>
      <point x="128" y="41"/>
      <point x="135" y="89" type="curve" smooth="yes"/>
      <point x="183" y="433" type="line"/>
      <point x="314" y="433" type="line"/>
      <point x="318" y="462" type="line"/>
      <point x="188" y="462" type="line"/>
      <point x="211" y="624" type="line"/>
      <point x="180" y="624" type="line"/>
      <point x="157" y="462" type="line"/>
      <point x="81" y="462" type="line"/>
      <point x="77" y="433" type="line"/>
      <point x="152" y="433" type="line"/>
      <point x="104" y="89" type="line" smooth="yes"/>
      <point x="95" y="25"/>
      <point x="125" y="-9"/>
    </contour>
  </outline>
</glyph>
<glyph name="u" format="2">
  <advance width="485"/>
  <unicode hex="0075"/>
  <anchor x="301" y="447" name="top"/>
  <anchor x="417" y="16" name="ogonek"/>
  <outline>
    <contour>
      <point x="229" y="-12" type="curve" smooth="yes"/>
      <point x="289" y="-12"/>
      <point x="362" y="25"/>
      <point x="401" y="142" type="curve"/>
      <point x="394" y="105" type="line" smooth="yes"/>
      <point x="388" y="72"/>
      <point x="386" y="31"/>
      <point x="386" y="0" type="curve"/>
      <point x="417" y="0" type="line"/>
      <point x="417" y="31"/>
      <point x="419" y="65"/>
      <point x="425" y="105" type="curve" smooth="yes"/>
      <point x="475" y="462" type="line"/>
      <point x="444" y="462" type="line"/>
      <point x="424" y="316" type="line" smooth="yes"/>
      <point x="388" y="56"/>
      <point x="284" y="17"/>
      <point x="229" y="17" type="curve" smooth="yes"/>
      <point x="157" y="17"/>
      <point x="110" y="68"/>
      <point x="126" y="168" type="curve" smooth="yes"/>
      <point x="153" y="338" type="line" smooth="yes"/>
      <point x="160" y="382"/>
      <point x="164" y="419"/>
      <point x="164" y="462" type="curve"/>
      <point x="133" y="462" type="line"/>
      <point x="133" y="419"/>
      <point x="130" y="384"/>
      <point x="122" y="338" type="curve" smooth="yes"/>
      <point x="94" y="168" type="line" smooth="yes"/>
      <point x="76" y="56"/>
      <point x="137" y="-12"/>
    </contour>
  </outline>
</glyph>
<glyph name="v" format="2">
  <advance width="409"/>
  <unicode hex="0076"/>
  <outline>
    <contour>
      <point x="195" y="0" type="line"/>
      <point x="216" y="0" type="line"/>
      <point x="300" y="114"/>
      <point x="374" y="249"/>
      <point x="450" y="462" type="curve"/>
      <point x="419" y="462" type="line"/>
      <point x="352" y="265"/>
      <point x="281" y="136"/>
      <point x="197" y="21" type="curve"/>
      <point x="220" y="21" type="line"/>
      <point x="210" y="71" type="line"/>
      <point x="116" y="462" type="line"/>
      <point x="85" y="462" type="line"/>
    </contour>
  </outline>
</glyph>
<glyph name="w" format="2">
  <advance width="700"/>
  <unicode hex="0077"/>
  <anchor x="425" y="446" name="top"/>
  <outline>
    <contour>
      <point x="191" y="0" type="line"/>
      <point x="218" y="0" type="line"/>
      <point x="292" y="122"/>
      <point x="364" y="270"/>
      <point x="430" y="441" type="curve"/>
      <point x="414" y="441" type="line"/>
      <point x="425" y="391" type="line"/>
      <point x="507" y="0" type="line"/>
      <point x="533" y="0" type="line"/>
      <point x="613" y="135"/>
      <point x="684" y="290"/>
      <point x="741" y="462" type="curve"/>
      <point x="711" y="462" type="line"/>
      <point x="655" y="296"/>
      <point x="588" y="148"/>
      <point x="516" y="21" type="curve"/>
      <point x="535" y="21" type="line"/>
      <point x="524" y="71" type="line"/>
      <point x="442" y="462" type="line"/>
      <point x="409" y="462" type="line"/>
      <point x="344" y="290"/>
      <point x="273" y="144"/>
      <point x="199" y="21" type="curve"/>
      <point x="218" y="21" type="line"/>
      <point x="208" y="71" type="line"/>
      <point x="116" y="462" type="line"/>
      <point x="85" y="462" type="line"/>
    </contour>
  </outline>
</glyph>
<glyph name="x" format="2">
  <advance width="411"/>
  <unicode hex="0078"/>
  <outline>
    <contour>
      <point x="24" y="0" type="line"/>
      <point x="60" y="0" type="line"/>
      <point x="215" y="184" type="line"/>
      <point x="249" y="224" type="line"/>
      <point x="257" y="233" type="line"/>
      <point x="450" y="462" type="line"/>
      <point x="414" y="462" type="line"/>
      <point x="278" y="301" type="line"/>
      <point x="243" y="259" type="line"/>
      <point x="233" y="247" type="line"/>
    </contour>
    <contour>
      <point x="352" y="0" type="line"/>
      <point x="387" y="0" type="line"/>
      <point x="257" y="246" type="line"/>
      <point x="251" y="258" type="line"/>
      <point x="229" y="301" type="line"/>
      <point x="143" y="462" type="line"/>
      <point x="108" y="462" type="line"/>
      <point x="229" y="233" type="line"/>
      <point x="235" y="222" type="line"/>
      <point x="255" y="184" type="line"/>
    </contour>
  </outline>
</glyph>
<glyph name="y" format="2">
  <advance width="434"/>
  <unicode hex="0079"/>
  <anchor x="272" y="446" name="top"/>
  <outline>
    <contour>
      <point x="220" y="-30" type="line"/>
      <point x="220" y="-11" type="line"/>
      <point x="158" y="-113"/>
      <point x="46" y="-190"/>
      <point x="-63" y="-190" type="curve" smooth="yes"/>
      <point x="-71" y="-190" type="line"/>
      <point x="-75" y="-220" type="line"/>
      <point x="-67" y="-220" type="line" smooth="yes"/>
      <point x="52" y="-220"/>
      <point x="154" y="-158"/>
      <point x="248" y="-22" type="curve" smooth="yes"/>
      <point x="325" y="90"/>
      <point x="396" y="247"/>
      <point x="465" y="462" type="curve"/>
      <point x="433" y="462" type="line"/>
      <point x="385" y="296"/>
      <point x="312" y="125"/>
      <point x="224" y="-11" type="curve"/>
      <point x="239" y="-11" type="line"/>
      <point x="219" y="71" type="line"/>
      <point x="111" y="462" type="line"/>
      <point x="80" y="462" type="line"/>
      <point x="214" y="-30" type="line"/>
    </contour>
  </outline>
</glyph>
<glyph name="z" format="2">
  <advance width="420"/>
  <unicode hex="007A"/>
  <anchor x="264" y="446" name="top"/>
  <outline>
    <contour>
      <point x="44" y="0" type="line"/>
      <point x="376" y="0" type="line"/>
      <point x="380" y="29" type="line"/>
      <point x="81" y="29" type="line"/>
      <point x="81" y="10" type="line"/>
      <point x="116" y="52" type="line"/>
      <point x="435" y="446" type="line"/>
      <point x="437" y="462" type="line"/>
      <point x="114" y="462" type="line"/>
      <point x="110" y="433" type="line"/>
      <point x="400" y="433" type="line"/>
      <point x="401" y="452" type="line"/>
      <point x="367" y="410" type="line"/>
      <point x="46" y="15" type="line"/>
    </contour>
  </outline>
</glyph>
<glyph name="braceleft" format="2">
  <advance width="432"/>
  <unicode hex="007B"/>
  <outline>
    <contour>
      <point x="330" y="-220" type="curve" smooth="yes"/>
      <point x="361" y="-220" type="line"/>
      <point x="365" y="-192" type="line"/>
      <point x="333" y="-192" type="line" smooth="yes"/>
      <point x="234" y="-192"/>
      <point x="186" y="-141"/>
      <point x="208" y="-34" type="curve" smooth="yes"/>
      <point x="233" y="88" type="line" smooth="yes"/>
      <point x="251" y="175"/>
      <point x="215" y="228"/>
      <point x="142" y="252" type="curve"/>
      <point x="142" y="253" type="line"/>
      <point x="221" y="273"/>
      <point x="271" y="325"/>
      <point x="278" y="416" type="curve" smooth="yes"/>
      <point x="287" y="538" type="line" smooth="yes"/>
      <point x="295" y="645"/>
      <point x="357" y="696"/>
      <point x="456" y="696" type="curve" smooth="yes"/>
      <point x="488" y="696" type="line"/>
      <point x="492" y="724" type="line"/>
      <point x="461" y="724" type="line" smooth="yes"/>
      <point x="339" y="724"/>
      <point x="265" y="664"/>
      <point x="255" y="538" type="curve" smooth="yes"/>
      <point x="246" y="416" type="line" smooth="yes"/>
      <point x="239" y="331"/>
      <point x="187" y="284"/>
      <point x="98" y="271" type="curve"/>
      <point x="93" y="233" type="line"/>
      <point x="178" y="220"/>
      <point x="217" y="173"/>
      <point x="201" y="88" type="curve" smooth="yes"/>
      <point x="176" y="-34" type="line" smooth="yes"/>
      <point x="150" y="-160"/>
      <point x="208" y="-220"/>
    </contour>
  </outline>
</glyph>
<glyph name="braceright" format="2">
  <advance width="432"/>
  <unicode hex="007D"/>
  <outline>
    <contour>
      <point x="11" y="-220" type="line"/>
      <point x="42" y="-220" type="line" smooth="yes"/>
      <point x="164" y="-220"/>
      <point x="238" y="-160"/>
      <point x="248" y="-34" type="curve" smooth="yes"/>
      <point x="257" y="88" type="line" smooth="yes"/>
      <point x="263" y="173"/>
      <point x="316" y="220"/>
      <point x="405" y="233" type="curve"/>
      <point x="410" y="271" type="line"/>
      <point x="325" y="284"/>
      <point x="285" y="331"/>
      <point x="302" y="416" type="curve" smooth="yes"/>
      <point x="327" y="538" type="line" smooth="yes"/>
      <point x="353" y="664"/>
      <point x="295" y="724"/>
      <point x="173" y="724" type="curve" smooth="yes"/>
      <point x="142" y="724" type="line"/>
      <point x="138" y="696" type="line"/>
      <point x="170" y="696" type="line" smooth="yes"/>
      <point x="269" y="696"/>
      <point x="317" y="645"/>
      <point x="295" y="538" type="curve" smooth="yes"/>
      <point x="270" y="416" type="line" smooth="yes"/>
      <point x="253" y="337"/>
      <point x="288" y="275"/>
      <point x="360" y="253" type="curve"/>
      <point x="360" y="252" type="line"/>
      <point x="276" y="228"/>
      <point x="230" y="167"/>
      <point x="225" y="88" type="curve" smooth="yes"/>
      <point x="216" y="-34" type="line" smooth="yes"/>
      <point x="208" y="-141"/>
      <point x="146" y="-192"/>
      <point x="47" y="-192" type="curve" smooth="yes"/>
      <point x="15" y="-192" type="line"/>
    </contour>
  </outline>
</glyph>
<glyph name="exclamdown" format="2">
  <advance width="184"/>
  <unicode hex="00A1"/>
  <outline>
    <contour>
      <point x="43" y="-236" type="line"/>
      <point x="73" y="-236" type="line"/>
      <point x="148" y="298" type="line"/>
      <point x="118" y="298" type="line"/>
    </contour>
    <contour>
      <point x="131" y="422" type="line"/>
      <point x="171" y="422" type="line"/>
      <point x="177" y="462" type="line"/>
      <point x="137" y="462" type="line"/>
    </contour>
  </outline>
</glyph>
<glyph name="questiondown" format="2">
  <advance width="402"/>
  <unicode hex="00BF"/>
  <outline>
    <contour>
      <point x="272" y="422" type="line"/>
      <point x="312" y="422" type="line"/>
      <point x="318" y="462" type="line"/>
      <point x="278" y="462" type="line"/>
    </contour>
    <contour>
      <point x="179" y="-233" type="curve" smooth="yes"/>
      <point x="236" y="-233"/>
      <point x="291" y="-217"/>
      <point x="335" y="-189" type="curve"/>
      <point x="341" y="-150" type="line"/>
      <point x="295" y="-187"/>
      <point x="236" y="-205"/>
      <point x="179" y="-205" type="curve" smooth="yes"/>
      <point x="99" y="-205"/>
      <point x="59" y="-162"/>
      <point x="59" y="-103" type="curve" smooth="yes"/>
      <point x="59" y="-39"/>
      <point x="93" y="9"/>
      <point x="163" y="73" type="curve" smooth="yes"/>
      <point x="242" y="143"/>
      <point x="274" y="199"/>
      <point x="289" y="298" type="curve"/>
      <point x="260" y="298" type="line"/>
      <point x="247" y="210"/>
      <point x="214" y="159"/>
      <point x="142" y="92" type="curve" smooth="yes"/>
      <point x="68" y="23"/>
      <point x="27" y="-31"/>
      <point x="27" y="-103" type="curve" smooth="yes"/>
      <point x="27" y="-183"/>
      <point x="85" y="-233"/>
    </contour>
  </outline>
</glyph>
<glyph name="acutecmb" format="2">
  <unicode hex="0301"/>
  <anchor x="63" y="446" name="_top"/>
  <anchor x="2" y="16" name="_bottom"/>
  <outline>
    <contour>
      <point x="34" y="524" type="line"/>
      <point x="72" y="524" type="line"/>
      <point x="176" y="649" type="line"/>
      <point x="138" y="649" type="line"/>
    </contour>
  </outline>
</glyph>
<glyph name="dieresiscmb" format="2">
  <unicode hex="0308"/>
  <anchor x="63" y="446" name="_top"/>
  <anchor x="3" y="16" name="_bottom"/>
  <outline>
    <contour>
      <point x="-8" y="540" type="line"/>
      <point x="34" y="540" type="line"/>
      <point x="40" y="582" type="line"/>
      <point x="-2" y="582" type="line"/>
    </contour>
    <contour>
      <point x="116" y="540" type="line"/>
      <point x="158" y="540" type="line"/>
      <point x="164" y="582" type="line"/>
      <point x="122" y="582" type="line"/>
    </contour>
  </outline>
</glyph>
<glyph name="Delta" format="2">
  <advance width="558"/>
  <unicode hex="0394"/>
  <unicode hex="2206"/>
  <outline>
    <contour>
      <point x="40" y="0" type="line"/>
      <point x="363" y="682" type="line"/>
      <point x="386" y="682" type="line"/>
      <point x="518" y="0" type="line"/>
    </contour>
    <contour>
      <point x="86" y="30" type="line"/>
      <point x="480" y="30" type="line"/>
      <point x="367" y="622" type="line"/>
    </contour>
  </outline>
</glyph>
<glyph name="pi" format="2">
  <advance width="477"/>
  <unicode hex="03C0"/>
  <outline>
    <contour>
      <point x="112" y="0" type="line"/>
      <point x="143" y="0" type="line"/>
      <point x="204" y="433" type="line"/>
      <point x="395" y="433" type="line"/>
      <point x="352" y="124" type="line" smooth="yes"/>
      <point x="345" y="76"/>
      <point x="342" y="35"/>
      <point x="342" y="0" type="curve"/>
      <point x="372" y="0" type="line"/>
      <point x="372" y="34"/>
      <point x="376" y="77"/>
      <point x="383" y="124" type="curve" smooth="yes"/>
      <point x="426" y="433" type="line"/>
      <point x="498" y="433" type="line"/>
      <point x="502" y="462" type="line"/>
      <point x="105" y="462" type="line"/>
      <point x="101" y="433" type="line"/>
      <point x="173" y="433" type="line"/>
    </contour>
  </outline>
</glyph>
<glyph name="endash" format="2">
  <advance width="496"/>
  <unicode hex="2013"/>
  <outline>
    <contour>
      <point x="62" y="211" type="line"/>
      <point x="498" y="211" type="line"/>
      <point x="502" y="240" type="line"/>
      <point x="66" y="240" type="line"/>
    </contour>
  </outline>
</glyph>
<glyph name="emdash" format="2">
  <advance width="996"/>
  <unicode hex="2014"/>
  <outline>
    <contour>
      <point x="62" y="211" type="line"/>
      <point x="998" y="211" type="line"/>
      <point x="1002" y="240" type="line"/>
      <point x="66" y="240" type="line"/>
    </contour>
  </outline>
</glyph>
<glyph name="quoteleft" format="2">
  <advance width="160"/>
  <unicode hex="2018"/>
  <outline>
    <contour>
      <point x="126" y="556" type="line"/>
      <point x="159" y="556" type="line"/>
      <point x="167" y="611" type="line" smooth="yes"/>
      <point x="172" y="648"/>
      <point x="185" y="680"/>
      <point x="216" y="717" type="curve"/>
      <point x="192" y="733" type="line"/>
      <point x="152" y="691"/>
      <point x="140" y="651"/>
      <point x="134" y="611" type="curve" smooth="yes"/>
    </contour>
  </outline>
</glyph>
<glyph name="quoteright" format="2">
  <advance width="156"/>
  <unicode hex="2019"/>
  <outline>
    <contour>
      <point x="143" y="544" type="line"/>
      <point x="183" y="586"/>
      <point x="196" y="628"/>
      <point x="202" y="668" type="curve" smooth="yes"/>
      <point x="210" y="724" type="line"/>
      <point x="180" y="724" type="line"/>
      <point x="172" y="668" type="line" smooth="yes"/>
      <point x="167" y="631"/>
      <point x="154" y="597"/>
      <point x="123" y="560" type="curve"/>
    </contour>
  </outline>
</glyph>
<glyph name="quotesinglbase" format="2">
  <advance width="156"/>
  <unicode hex="201A"/>
  <outline>
    <contour>
      <point x="50" y="-119" type="line"/>
      <point x="90" y="-77"/>
      <point x="103" y="-35"/>
      <point x="109" y="5" type="curve" smooth="yes"/>
      <point x="117" y="61" type="line"/>
      <point x="87" y="61" type="line"/>
      <point x="79" y="5" type="line" smooth="yes"/>
      <point x="74" y="-32"/>
      <point x="61" y="-66"/>
      <point x="30" y="-103" type="curve"/>
    </contour>
  </outline>
</glyph>
<glyph name="quotedblleft" format="2">
  <advance width="260"/>
  <unicode hex="201C"/>
  <outline>
    <contour>
      <point x="123" y="560" type="line"/>
      <point x="156" y="560" type="line"/>
      <point x="163" y="611" type="line" smooth="yes"/>
      <point x="168" y="648"/>
      <point x="181" y="680"/>
      <point x="212" y="717" type="curve"/>
      <point x="188" y="733" type="line"/>
      <point x="148" y="691"/>
      <point x="136" y="651"/>
      <point x="130" y="611" type="curve" smooth="yes"/>
    </contour>
    <contour>
      <point x="224" y="560" type="line"/>
      <point x="257" y="560" type="line"/>
      <point x="264" y="611" type="line" smooth="yes"/>
      <point x="269" y="648"/>
      <point x="282" y="680"/>
      <point x="313" y="717" type="curve"/>
      <point x="289" y="733" type="line"/>
      <point x="249" y="691"/>
      <point x="237" y="651"/>
      <point x="231" y="611" type="curve" smooth="yes"/>
    </contour>
  </outline>
</glyph>
<glyph name="quotedblright" format="2">
  <advance width="252"/>
  <unicode hex="201D"/>
  <outline>
    <contour>
      <point x="143" y="544" type="line"/>
      <point x="183" y="586"/>
      <point x="196" y="628"/>
      <point x="202" y="668" type="curve" smooth="yes"/>
      <point x="210" y="724" type="line"/>
      <point x="180" y="724" type="line"/>
      <point x="172" y="668" type="line" smooth="yes"/>
      <point x="167" y="631"/>
      <point x="154" y="597"/>
      <point x="123" y="560" type="curve"/>
    </contour>
    <contour>
      <point x="239" y="544" type="line"/>
      <point x="279" y="586"/>
      <point x="292" y="628"/>
      <point x="298" y="668" type="curve" smooth="yes"/>
      <point x="306" y="724" type="line"/>
      <point x="276" y="724" type="line"/>
      <point x="268" y="668" type="line" smooth="yes"/>
      <point x="263" y="631"/>
      <point x="250" y="597"/>
      <point x="219" y="560" type="curve"/>
    </contour>
  </outline>
</glyph>
<glyph name="quotedblbase" format="2">
  <advance width="252"/>
  <unicode hex="201E"/>
  <outline>
    <contour>
      <point x="50" y="-119" type="line"/>
      <point x="90" y="-77"/>
      <point x="103" y="-35"/>
      <point x="109" y="5" type="curve" smooth="yes"/>
      <point x="117" y="61" type="line"/>
      <point x="87" y="61" type="line"/>
      <point x="79" y="5" type="line" smooth="yes"/>
      <point x="74" y="-32"/>
      <point x="61" y="-66"/>
      <point x="30" y="-103" type="curve"/>
    </contour>
    <contour>
      <point x="146" y="-119" type="line"/>
      <point x="186" y="-77"/>
      <point x="199" y="-35"/>
      <point x="205" y="5" type="curve" smooth="yes"/>
      <point x="213" y="61" type="line"/>
      <point x="183" y="61" type="line"/>
      <point x="175" y="5" type="line" smooth="yes"/>
      <point x="170" y="-32"/>
      <point x="157" y="-66"/>
      <point x="126" y="-103" type="curve"/>
    </contour>
  </outline>
</glyph>
<glyph name="Euro" format="2">
  <advance width="741"/>
  <unicode hex="20AC"/>
  <outline>
    <contour>
      <point x="75" y="364" type="line"/>
      <point x="359" y="364" type="line"/>
      <point x="363" y="393" type="line"/>
      <point x="79" y="393" type="line"/>
    </contour>
    <contour>
      <point x="62" y="272" type="line"/>
      <point x="346" y="272" type="line"/>
      <point x="350" y="301" type="line"/>
      <point x="66" y="301" type="line"/>
    </contour>
    <component base="C" xOffset="48"/>
  </outline>
</glyph>
<glyph name="Omega" format="2">
  <advance width="701"/>
  <unicode hex="A7B6"/>
  <unicode hex="2126"/>
  <outline>
    <contour>
      <point x="62" y="0" type="line"/>
      <point x="317" y="0" type="line"/>
      <point x="330" y="98" type="line"/>
      <point x="207" y="120"/>
      <point x="125" y="221"/>
      <point x="125" y="347" type="curve" smooth="yes"/>
      <point x="125" y="499"/>
      <point x="247" y="642"/>
      <point x="422" y="642" type="curve" smooth="yes"/>
      <point x="586" y="642"/>
      <point x="678" y="528"/>
      <point x="678" y="380" type="curve" smooth="yes"/>
      <point x="678" y="242"/>
      <point x="575" y="117"/>
      <point x="399" y="96" type="curve"/>
      <point x="386" y="0" type="line"/>
      <point x="640" y="0" type="line"/>
      <point x="644" y="32" type="line"/>
      <point x="400" y="32" type="line"/>
      <point x="417" y="24" type="line"/>
      <point x="424" y="78" type="line"/>
      <point x="403" y="69" type="line"/>
      <point x="578" y="87"/>
      <point x="711" y="216"/>
      <point x="711" y="380" type="curve" smooth="yes"/>
      <point x="711" y="560"/>
      <point x="592" y="671"/>
      <point x="422" y="671" type="curve" smooth="yes"/>
      <point x="250" y="671"/>
      <point x="92" y="539"/>
      <point x="92" y="347" type="curve" smooth="yes"/>
      <point x="92" y="197"/>
      <point x="194" y="96"/>
      <point x="314" y="72" type="curve"/>
      <point x="300" y="79" type="line"/>
      <point x="292" y="24" type="line"/>
      <point x="311" y="32" type="line"/>
      <point x="66" y="32" type="line"/>
    </contour>
  </outline>
</glyph>
<glyph name="Euro.lc" format="2">
  <advance width="512"/>
  <outline>
    <contour>
      <point x="53" y="177" type="line"/>
      <point x="337" y="177" type="line"/>
      <point x="341" y="205" type="line"/>
      <point x="57" y="205" type="line"/>
    </contour>
    <contour>
      <point x="65" y="266" type="line"/>
      <point x="349" y="266" type="line"/>
      <point x="353" y="294" type="line"/>
      <point x="69" y="294" type="line"/>
    </contour>
    <component base="c" xOffset="27"/>
  </outline>
</glyph>
<glyph name="J.base" format="2">
  <advance width="245"/>
  <anchor x="239" y="642" name="top"/>
  <outline>
    <contour>
      <point x="34" y="-16" type="line" smooth="yes"/>
      <point x="114" y="-16"/>
      <point x="169" y="30"/>
      <point x="181" y="116" type="curve" smooth="yes"/>
      <point x="257" y="658" type="line"/>
      <point x="225" y="658" type="line"/>
      <point x="149" y="116" type="line" smooth="yes"/>
      <point x="140" y="50"/>
      <point x="98" y="13"/>
      <point x="38" y="13" type="curve" smooth="yes"/>
      <point x="30" y="13" type="line"/>
      <point x="26" y="-16" type="line"/>
    </contour>
  </outline>
</glyph>
<glyph name="S.sc" format="2">
  <advance width="405"/>
  <anchor x="268" y="500" name="top"/>
  <anchor x="201" y="16" name="bottom"/>
  <outline>
    <contour>
      <point x="203" y="-12" type="curve" smooth="yes"/>
      <point x="307" y="-12"/>
      <point x="371" y="46"/>
      <point x="371" y="139" type="curve" smooth="yes"/>
      <point x="371" y="199"/>
      <point x="330" y="241"/>
      <point x="245" y="277" type="curve" smooth="yes"/>
      <point x="231" y="283" type="line" smooth="yes"/>
      <point x="174" y="308"/>
      <point x="141" y="338"/>
      <point x="141" y="381" type="curve" smooth="yes"/>
      <point x="141" y="449"/>
      <point x="191" y="491"/>
      <point x="271" y="491" type="curve" smooth="yes"/>
      <point x="322" y="491"/>
      <point x="364" y="476"/>
      <point x="402" y="447" type="curve"/>
      <point x="407" y="482" type="line"/>
      <point x="369" y="508"/>
      <point x="325" y="520"/>
      <point x="271" y="520" type="curve" smooth="yes"/>
      <point x="171" y="520"/>
      <point x="110" y="467"/>
      <point x="110" y="381" type="curve" smooth="yes"/>
      <point x="110" y="327"/>
      <point x="148" y="284"/>
      <point x="219" y="254" type="curve" smooth="yes"/>
      <point x="233" y="248" type="line" smooth="yes"/>
      <point x="303" y="218"/>
      <point x="341" y="189"/>
      <point x="341" y="139" type="curve" smooth="yes"/>
      <point x="341" y="64"/>
      <point x="288" y="17"/>
      <point x="204" y="17" type="curve" smooth="yes"/>
      <point x="147" y="17"/>
      <point x="101" y="34"/>
      <point x="62" y="70" type="curve"/>
      <point x="57" y="33" type="line"/>
      <point x="100" y="3"/>
      <point x="146" y="-12"/>
    </contour>
  </outline>
</glyph>
<glyph name="acutecmb.uc" format="2">
  <anchor x="90" y="642" name="_top"/>
  <anchor x="2" y="16" name="_bottom"/>
  <outline>
    <contour>
      <point x="62" y="724" type="line"/>
      <point x="100" y="724" type="line"/>
      <point x="204" y="849" type="line"/>
      <point x="166" y="849" type="line"/>
    </contour>
  </outline>
</glyph>
<glyph name="braceleft.uc" format="2">
  <advance width="442"/>
  <guideline x="176" y="312" angle="0.0" name="" identifier="XIJt9PGOxh"/>
  <outline>
    <contour>
      <point x="362" y="-65" type="curve" smooth="yes"/>
      <point x="393" y="-65" type="line"/>
      <point x="397" y="-37" type="line"/>
      <point x="365" y="-37" type="line" smooth="yes"/>
      <point x="262" y="-37"/>
      <point x="224" y="15"/>
      <point x="241" y="140" type="curve" smooth="yes"/>
      <point x="245" y="168" type="line" smooth="yes"/>
      <point x="257" y="254"/>
      <point x="227" y="307"/>
      <point x="153" y="331" type="curve"/>
      <point x="153" y="332" type="line"/>
      <point x="232" y="352"/>
      <point x="276" y="403"/>
      <point x="289" y="494" type="curve" smooth="yes"/>
      <point x="293" y="522" type="line" smooth="yes"/>
      <point x="308" y="641"/>
      <point x="363" y="696"/>
      <point x="462" y="696" type="curve" smooth="yes"/>
      <point x="494" y="696" type="line"/>
      <point x="498" y="724" type="line"/>
      <point x="467" y="724" type="line" smooth="yes"/>
      <point x="345" y="724"/>
      <point x="278" y="659"/>
      <point x="261" y="522" type="curve" smooth="yes"/>
      <point x="257" y="494" type="line" smooth="yes"/>
      <point x="245" y="412"/>
      <point x="198" y="363"/>
      <point x="109" y="350" type="curve"/>
      <point x="104" y="312" type="line"/>
      <point x="190" y="299"/>
      <point x="225" y="253"/>
      <point x="213" y="168" type="curve" smooth="yes"/>
      <point x="209" y="140" type="line" smooth="yes"/>
      <point x="190" y="-1"/>
      <point x="241" y="-65"/>
    </contour>
  </outline>
</glyph>
<glyph name="braceright.uc" format="2">
  <advance width="442"/>
  <guideline x="408" y="314" angle="0.0" name="" identifier="itYzzvmhFu"/>
  <outline>
    <contour>
      <point x="37" y="-64" type="line"/>
      <point x="68" y="-64" type="line" smooth="yes"/>
      <point x="192" y="-64"/>
      <point x="255" y="-1"/>
      <point x="274" y="145" type="curve" smooth="yes"/>
      <point x="278" y="173" type="line" smooth="yes"/>
      <point x="290" y="253"/>
      <point x="337" y="301"/>
      <point x="426" y="314" type="curve"/>
      <point x="431" y="352" type="line"/>
      <point x="346" y="365"/>
      <point x="311" y="412"/>
      <point x="323" y="499" type="curve" smooth="yes"/>
      <point x="327" y="527" type="line" smooth="yes"/>
      <point x="344" y="661"/>
      <point x="295" y="723"/>
      <point x="173" y="723" type="curve" smooth="yes"/>
      <point x="142" y="723" type="line"/>
      <point x="138" y="695" type="line"/>
      <point x="170" y="695" type="line" smooth="yes"/>
      <point x="275" y="695"/>
      <point x="310" y="645"/>
      <point x="295" y="527" type="curve" smooth="yes"/>
      <point x="291" y="499" type="line" smooth="yes"/>
      <point x="279" y="411"/>
      <point x="309" y="357"/>
      <point x="382" y="333" type="curve"/>
      <point x="382" y="332" type="line"/>
      <point x="303" y="312"/>
      <point x="259" y="262"/>
      <point x="246" y="173" type="curve" smooth="yes"/>
      <point x="242" y="145" type="line" smooth="yes"/>
      <point x="226" y="20"/>
      <point x="172" y="-36"/>
      <point x="73" y="-36" type="curve" smooth="yes"/>
      <point x="41" y="-36" type="line"/>
    </contour>
  </outline>
</glyph>
<glyph name="bracketleft.uc" format="2">
  <advance width="318"/>
  <outline>
    <contour>
      <point x="91" y="-64" type="line"/>
      <point x="269" y="-64" type="line"/>
      <point x="273" y="-36" type="line"/>
      <point x="128" y="-36" type="line"/>
      <point x="231" y="696" type="line"/>
      <point x="375" y="696" type="line"/>
      <point x="379" y="724" type="line"/>
      <point x="202" y="724" type="line"/>
    </contour>
  </outline>
</glyph>
<glyph name="bracketright.uc" format="2">
  <advance width="317"/>
  <outline>
    <contour>
      <point x="31" y="-64" type="line"/>
      <point x="208" y="-64" type="line"/>
      <point x="319" y="724" type="line"/>
      <point x="142" y="724" type="line"/>
      <point x="138" y="696" type="line"/>
      <point x="283" y="696" type="line"/>
      <point x="180" y="-36" type="line"/>
      <point x="35" y="-36" type="line"/>
    </contour>
  </outline>
</glyph>
<glyph name="dollar.lc" format="2">
  <advance width="375"/>
  <anchor x="226" y="457" name="top"/>
  <outline>
    <contour>
      <point x="208" y="236" type="line"/>
      <point x="236" y="236" type="line"/>
      <point x="285" y="583" type="line"/>
      <point x="257" y="583" type="line"/>
    </contour>
    <contour>
      <point x="159" y="-114" type="line"/>
      <point x="187" y="-114" type="line"/>
      <point x="235" y="230" type="line"/>
      <point x="207" y="230" type="line"/>
    </contour>
    <component base="s" xOffset="8"/>
  </outline>
</glyph>
<glyph name="dollar.lc_AT_weight800" format="2">
  <advance width="375"/>
  <anchor x="230" y="457" name="top"/>
  <outline>
    <contour>
      <point x="241" y="457" type="line"/>
      <point x="269" y="457" type="line"/>
      <point x="287" y="582" type="line"/>
      <point x="259" y="582" type="line"/>
    </contour>
    <contour>
      <point x="161" y="-114" type="line"/>
      <point x="189" y="-114" type="line"/>
      <point x="205" y="2" type="line"/>
      <point x="177" y="2" type="line"/>
    </contour>
    <component base="s" xOffset="8"/>
  </outline>
</glyph>
<glyph name="dollar.sc_AT_weight800" format="2">
  <advance width="405"/>
  <outline>
    <contour>
      <point x="261" y="508" type="line"/>
      <point x="290" y="508" type="line"/>
      <point x="302" y="596" type="line"/>
      <point x="273" y="596" type="line"/>
    </contour>
    <contour>
      <point x="178" y="-86" type="line"/>
      <point x="207" y="-86" type="line"/>
      <point x="219" y="1" type="line"/>
      <point x="190" y="1" type="line"/>
    </contour>
    <component base="S.sc"/>
  </outline>
</glyph>
<glyph name="dollar_AT_weight800" format="2">
  <advance width="491"/>
  <outline>
    <contour>
      <point x="327" y="654" type="line"/>
      <point x="356" y="654" type="line"/>
      <point x="369" y="748" type="line"/>
      <point x="340" y="748" type="line"/>
    </contour>
    <contour>
      <point x="223" y="-90" type="line"/>
      <point x="252" y="-90" type="line"/>
      <point x="265" y="6" type="line"/>
      <point x="236" y="6" type="line"/>
    </contour>
    <component base="S" xOffset="-4"/>
  </outline>
</glyph>
<glyph name="f.salt_connect" format="2">
  <advance width="235"/>
  <outline>
    <contour>
      <point x="95" y="0" type="line"/>
      <point x="126" y="0" type="line"/>
      <point x="187" y="434" type="line"/>
      <point x="279" y="434" type="line"/>
      <point x="283" y="462" type="line"/>
      <point x="191" y="462" type="line"/>
      <point x="208" y="583" type="line" smooth="yes"/>
      <point x="218" y="654"/>
      <point x="266" y="704"/>
      <point x="333" y="704" type="curve" smooth="yes"/>
      <point x="361" y="704"/>
      <point x="398" y="695"/>
      <point x="426" y="677" type="curve"/>
      <point x="431" y="710" type="line"/>
      <point x="403" y="726"/>
      <point x="364" y="734"/>
      <point x="334" y="734" type="curve" smooth="yes"/>
      <point x="250" y="734"/>
      <point x="190" y="672"/>
      <point x="177" y="583" type="curve" smooth="yes"/>
      <point x="160" y="462" type="line"/>
      <point x="81" y="462" type="line"/>
      <point x="77" y="434" type="line"/>
      <point x="156" y="434" type="line"/>
    </contour>
  </outline>
</glyph>
<glyph name="f.salt_noconnect" format="2">
  <advance width="238"/>
  <outline>
    <contour>
      <point x="95" y="0" type="line"/>
      <point x="126" y="0" type="line"/>
      <point x="187" y="434" type="line"/>
      <point x="279" y="434" type="line"/>
      <point x="283" y="462" type="line"/>
      <point x="191" y="462" type="line"/>
      <point x="217" y="645" type="line" smooth="yes"/>
      <point x="223" y="684"/>
      <point x="243" y="703"/>
      <point x="274" y="703" type="curve" smooth="yes"/>
      <point x="290" y="703"/>
      <point x="304" y="700"/>
      <point x="319" y="693" type="curve"/>
      <point x="323" y="725" type="line"/>
      <point x="306" y="730"/>
      <point x="294" y="733"/>
      <point x="274" y="733" type="curve" smooth="yes"/>
      <point x="224" y="733"/>
      <point x="194" y="699"/>
      <point x="186" y="645" type="curve" smooth="yes"/>
      <point x="160" y="462" type="line"/>
      <point x="81" y="462" type="line"/>
      <point x="77" y="434" type="line"/>
      <point x="156" y="434" type="line"/>
    </contour>
  </outline>
</glyph>
<glyph name="five.dnom" format="2">
  <advance width="290"/>
  <outline>
    <contour>
      <point x="142" y="-8" type="curve" smooth="yes"/>
      <point x="223" y="-8"/>
      <point x="268" y="44"/>
      <point x="268" y="112" type="curve" smooth="yes"/>
      <point x="268" y="175"/>
      <point x="228" y="219"/>
      <point x="159" y="219" type="curve" smooth="yes"/>
      <point x="137" y="219"/>
      <point x="118" y="215"/>
      <point x="92" y="208" type="curve"/>
      <point x="107" y="204" type="line"/>
      <point x="133" y="329" type="line"/>
      <point x="279" y="329" type="line"/>
      <point x="283" y="360" type="line"/>
      <point x="109" y="360" type="line"/>
      <point x="70" y="172" type="line"/>
      <point x="110" y="186"/>
      <point x="132" y="189"/>
      <point x="158" y="189" type="curve" smooth="yes"/>
      <point x="207" y="189"/>
      <point x="237" y="157"/>
      <point x="237" y="110" type="curve" smooth="yes"/>
      <point x="237" y="59"/>
      <point x="199" y="21"/>
      <point x="142" y="21" type="curve" smooth="yes"/>
      <point x="104" y="21"/>
      <point x="69" y="39"/>
      <point x="46" y="68" type="curve"/>
      <point x="41" y="32" type="line"/>
      <point x="65" y="6"/>
      <point x="100" y="-8"/>
    </contour>
  </outline>
</glyph>
<glyph name="five.lc" format="2">
  <advance width="481"/>
  <outline>
    <contour>
      <point x="203" y="-200" type="curve" smooth="yes"/>
      <point x="332" y="-200"/>
      <point x="429" y="-110"/>
      <point x="429" y="17" type="curve" smooth="yes"/>
      <point x="429" y="130"/>
      <point x="353" y="199"/>
      <point x="236" y="199" type="curve" smooth="yes"/>
      <point x="198" y="199"/>
      <point x="154" y="193"/>
      <point x="119" y="182" type="curve"/>
      <point x="122" y="173" type="line"/>
      <point x="177" y="438" type="line"/>
      <point x="458" y="438" type="line"/>
      <point x="463" y="470" type="line"/>
      <point x="156" y="470" type="line"/>
      <point x="87" y="146" type="line"/>
      <point x="132" y="161"/>
      <point x="188" y="170"/>
      <point x="236" y="170" type="curve" smooth="yes"/>
      <point x="335" y="170"/>
      <point x="397" y="111"/>
      <point x="397" y="15" type="curve" smooth="yes"/>
      <point x="397" y="-94"/>
      <point x="314" y="-171"/>
      <point x="203" y="-171" type="curve" smooth="yes"/>
      <point x="128" y="-171"/>
      <point x="77" y="-141"/>
      <point x="36" y="-88" type="curve"/>
      <point x="30" y="-128" type="line"/>
      <point x="73" y="-176"/>
      <point x="130" y="-200"/>
    </contour>
  </outline>
</glyph>
<glyph name="four.dnom" format="2">
  <advance width="305"/>
  <outline>
    <contour>
      <point x="190" y="0" type="line"/>
      <point x="221" y="0" type="line"/>
      <point x="235" y="99" type="line"/>
      <point x="295" y="99" type="line"/>
      <point x="299" y="127" type="line"/>
      <point x="240" y="127" type="line"/>
      <point x="273" y="360" type="line"/>
      <point x="235" y="360" type="line"/>
      <point x="41" y="121" type="line"/>
      <point x="38" y="99" type="line"/>
      <point x="204" y="99" type="line"/>
    </contour>
    <contour>
      <point x="209" y="127" type="line"/>
      <point x="79" y="127" type="line"/>
      <point x="236" y="319" type="line"/>
    </contour>
  </outline>
</glyph>
<glyph name="four.lc" format="2">
  <advance width="528"/>
  <outline>
    <contour>
      <point x="325" y="-195" type="line"/>
      <point x="357" y="-195" type="line"/>
      <point x="385" y="0" type="line"/>
      <point x="488" y="0" type="line"/>
      <point x="492" y="28" type="line"/>
      <point x="389" y="28" type="line"/>
      <point x="451" y="471" type="line"/>
      <point x="429" y="471" type="line"/>
      <point x="56" y="27" type="line"/>
      <point x="53" y="0" type="line"/>
      <point x="353" y="0" type="line"/>
    </contour>
    <contour>
      <point x="357" y="28" type="line"/>
      <point x="94" y="28" type="line"/>
      <point x="409" y="404" type="line"/>
    </contour>
  </outline>
</glyph>
<glyph name="one.dnom" format="2">
  <advance width="277"/>
  <outline>
    <contour>
      <point x="47" y="0" type="line"/>
      <point x="245" y="0" type="line"/>
      <point x="249" y="29" type="line"/>
      <point x="165" y="29" type="line"/>
      <point x="214" y="377" type="line"/>
      <point x="86" y="350" type="line"/>
      <point x="81" y="317" type="line"/>
      <point x="177" y="336" type="line"/>
      <point x="134" y="29" type="line"/>
      <point x="50" y="29" type="line"/>
    </contour>
  </outline>
</glyph>
<glyph name="one.lc" format="2">
  <advance width="365"/>
  <outline>
    <contour>
      <point x="57" y="0" type="line"/>
      <point x="321" y="0" type="line"/>
      <point x="325" y="28" type="line"/>
      <point x="209" y="28" type="line"/>
      <point x="273" y="491" type="line"/>
      <point x="107" y="451" type="line"/>
      <point x="103" y="421" type="line"/>
      <point x="236" y="452" type="line"/>
      <point x="177" y="28" type="line"/>
      <point x="61" y="28" type="line"/>
    </contour>
  </outline>
</glyph>
<glyph name="parenleft.uc" format="2">
  <advance width="273"/>
  <outline>
    <contour>
      <point x="208" y="-64" type="curve"/>
      <point x="244" y="-64" type="line"/>
      <point x="178" y="27"/>
      <point x="137" y="159"/>
      <point x="137" y="283" type="curve" smooth="yes"/>
      <point x="137" y="444"/>
      <point x="219" y="611"/>
      <point x="352" y="724" type="curve"/>
      <point x="316" y="724" type="line"/>
      <point x="185" y="611"/>
      <point x="104" y="443"/>
      <point x="104" y="282" type="curve" smooth="yes"/>
      <point x="104" y="157"/>
      <point x="144" y="25"/>
    </contour>
  </outline>
</glyph>
<glyph name="parenright.uc" format="2">
  <advance width="274"/>
  <outline>
    <contour>
      <point x="14" y="-64" type="curve"/>
      <point x="50" y="-64" type="line"/>
      <point x="181" y="49"/>
      <point x="262" y="217"/>
      <point x="262" y="377" type="curve" smooth="yes"/>
      <point x="262" y="503"/>
      <point x="222" y="635"/>
      <point x="158" y="724" type="curve"/>
      <point x="122" y="724" type="line"/>
      <point x="188" y="633"/>
      <point x="229" y="501"/>
      <point x="229" y="376" type="curve" smooth="yes"/>
      <point x="229" y="216"/>
      <point x="147" y="49"/>
    </contour>
  </outline>
</glyph>
<glyph name="seven.dnom" format="2">
  <advance width="299"/>
  <outline>
    <contour>
      <point x="90" y="0" type="line"/>
      <point x="123" y="0" type="line"/>
      <point x="310" y="332" type="line"/>
      <point x="314" y="360" type="line"/>
      <point x="87" y="360" type="line"/>
      <point x="83" y="329" type="line"/>
      <point x="297" y="329" type="line"/>
      <point x="287" y="351" type="line"/>
    </contour>
  </outline>
</glyph>
<glyph name="seven.lc" format="2">
  <advance width="461"/>
  <outline>
    <contour>
      <point x="121" y="-196" type="line" smooth="yes"/>
      <point x="153" y="-196" type="line" smooth="yes"/>
      <point x="480" y="452" type="line" smooth="yes"/>
      <point x="483" y="470" type="line" smooth="yes"/>
      <point x="111" y="470" type="line" smooth="yes"/>
      <point x="106" y="438" type="line" smooth="yes"/>
      <point x="461" y="438" type="line" smooth="yes"/>
      <point x="449" y="453" type="line" smooth="yes"/>
    </contour>
  </outline>
</glyph>
<glyph name="three.dnom" format="2">
  <advance width="293"/>
  <outline>
    <contour>
      <point x="148" y="-8" type="curve" smooth="yes"/>
      <point x="227" y="-8"/>
      <point x="270" y="39"/>
      <point x="270" y="101" type="curve" smooth="yes"/>
      <point x="270" y="149"/>
      <point x="236" y="188"/>
      <point x="180" y="191" type="curve"/>
      <point x="180" y="183" type="line"/>
      <point x="246" y="192"/>
      <point x="288" y="236"/>
      <point x="288" y="283" type="curve" smooth="yes"/>
      <point x="288" y="334"/>
      <point x="257" y="368"/>
      <point x="193" y="368" type="curve" smooth="yes"/>
      <point x="160" y="368"/>
      <point x="127" y="358"/>
      <point x="98" y="336" type="curve"/>
      <point x="93" y="302" type="line"/>
      <point x="122" y="327"/>
      <point x="155" y="339"/>
      <point x="193" y="339" type="curve" smooth="yes"/>
      <point x="229" y="339"/>
      <point x="253" y="317"/>
      <point x="253" y="281" type="curve" smooth="yes"/>
      <point x="253" y="238"/>
      <point x="217" y="202"/>
      <point x="147" y="202" type="curve" smooth="yes"/>
      <point x="135" y="202" type="line"/>
      <point x="131" y="173" type="line"/>
      <point x="145" y="173" type="line" smooth="yes"/>
      <point x="203" y="173"/>
      <point x="236" y="142"/>
      <point x="236" y="99" type="curve" smooth="yes"/>
      <point x="236" y="55"/>
      <point x="206" y="21"/>
      <point x="148" y="21" type="curve" smooth="yes"/>
      <point x="109" y="21"/>
      <point x="71" y="37"/>
      <point x="46" y="68" type="curve"/>
      <point x="41" y="32" type="line"/>
      <point x="69" y="7"/>
      <point x="105" y="-8"/>
    </contour>
  </outline>
</glyph>
<glyph name="three.lc" format="2">
  <advance width="479"/>
  <outline>
    <contour>
      <point x="224" y="-202" type="curve" smooth="yes"/>
      <point x="352" y="-202"/>
      <point x="427" y="-119"/>
      <point x="427" y="-12" type="curve" smooth="yes"/>
      <point x="427" y="90"/>
      <point x="359" y="151"/>
      <point x="267" y="152" type="curve"/>
      <point x="266" y="144" type="line"/>
      <point x="378" y="158"/>
      <point x="461" y="238"/>
      <point x="461" y="335" type="curve" smooth="yes"/>
      <point x="461" y="425"/>
      <point x="398" y="480"/>
      <point x="303" y="480" type="curve" smooth="yes"/>
      <point x="245" y="480"/>
      <point x="189" y="462"/>
      <point x="137" y="425" type="curve"/>
      <point x="132" y="386" type="line"/>
      <point x="182" y="428"/>
      <point x="241" y="451"/>
      <point x="303" y="451" type="curve" smooth="yes"/>
      <point x="381" y="451"/>
      <point x="429" y="406"/>
      <point x="429" y="334" type="curve" smooth="yes"/>
      <point x="429" y="231"/>
      <point x="332" y="164"/>
      <point x="216" y="164" type="curve" smooth="yes"/>
      <point x="193" y="164" type="line"/>
      <point x="189" y="134" type="line"/>
      <point x="214" y="134" type="line" smooth="yes"/>
      <point x="332" y="134"/>
      <point x="395" y="82"/>
      <point x="395" y="-12" type="curve" smooth="yes"/>
      <point x="395" y="-110"/>
      <point x="326" y="-173"/>
      <point x="224" y="-173" type="curve" smooth="yes"/>
      <point x="152" y="-173"/>
      <point x="87" y="-145"/>
      <point x="44" y="-90" type="curve"/>
      <point x="38" y="-130" type="line"/>
      <point x="84" y="-176"/>
      <point x="145" y="-202"/>
    </contour>
  </outline>
</glyph>
<glyph name="two.dnom" format="2">
  <advance width="309"/>
  <outline>
    <contour>
      <point x="36" y="0" type="line"/>
      <point x="273" y="0" type="line"/>
      <point x="277" y="31" type="line"/>
      <point x="49" y="31" type="line"/>
      <point x="56" y="24" type="line"/>
      <point x="237" y="122"/>
      <point x="307" y="189"/>
      <point x="307" y="264" type="curve" smooth="yes"/>
      <point x="307" y="333"/>
      <point x="264" y="368"/>
      <point x="195" y="368" type="curve" smooth="yes"/>
      <point x="156" y="368"/>
      <point x="119" y="357"/>
      <point x="89" y="338" type="curve"/>
      <point x="84" y="304" type="line"/>
      <point x="118" y="327"/>
      <point x="157" y="339"/>
      <point x="193" y="339" type="curve" smooth="yes"/>
      <point x="248" y="339"/>
      <point x="276" y="310"/>
      <point x="276" y="262" type="curve" smooth="yes"/>
      <point x="276" y="202"/>
      <point x="222" y="146"/>
      <point x="43" y="48" type="curve"/>
    </contour>
  </outline>
</glyph>
<glyph name="two.lc" format="2">
  <advance width="415"/>
  <outline>
    <contour>
      <point x="48" y="0" type="line"/>
      <point x="363" y="0" type="line"/>
      <point x="367" y="32" type="line"/>
      <point x="64" y="32" type="line"/>
      <point x="70" y="19" type="line"/>
      <point x="292" y="115"/>
      <point x="403" y="235"/>
      <point x="403" y="347" type="curve" smooth="yes"/>
      <point x="403" y="439"/>
      <point x="353" y="487"/>
      <point x="253" y="487" type="curve" smooth="yes"/>
      <point x="209" y="487"/>
      <point x="160" y="474"/>
      <point x="117" y="447" type="curve"/>
      <point x="112" y="412" type="line"/>
      <point x="153" y="440"/>
      <point x="203" y="457"/>
      <point x="252" y="457" type="curve" smooth="yes"/>
      <point x="320" y="457"/>
      <point x="369" y="423"/>
      <point x="369" y="345" type="curve" smooth="yes"/>
      <point x="369" y="246"/>
      <point x="264" y="137"/>
      <point x="53" y="39" type="curve"/>
    </contour>
  </outline>
</glyph>
<glyph name="zero.dnom" format="2">
  <advance width="391"/>
  <anchor x="311" y="457" name="top"/>
  <outline>
    <contour>
      <point x="202" y="-8" type="curve" smooth="yes"/>
      <point x="315" y="-8"/>
      <point x="377" y="86"/>
      <point x="377" y="211" type="curve" smooth="yes"/>
      <point x="377" y="301"/>
      <point x="329" y="368"/>
      <point x="239" y="368" type="curve" smooth="yes"/>
      <point x="126" y="368"/>
      <point x="65" y="276"/>
      <point x="65" y="152" type="curve" smooth="yes"/>
      <point x="65" y="60"/>
      <point x="113" y="-8"/>
    </contour>
    <contour>
      <point x="203" y="21" type="curve" smooth="yes"/>
      <point x="137" y="21"/>
      <point x="96" y="72"/>
      <point x="96" y="154" type="curve" smooth="yes"/>
      <point x="96" y="268"/>
      <point x="152" y="339"/>
      <point x="238" y="339" type="curve" smooth="yes"/>
      <point x="304" y="339"/>
      <point x="346" y="290"/>
      <point x="346" y="209" type="curve" smooth="yes"/>
      <point x="346" y="94"/>
      <point x="290" y="21"/>
    </contour>
  </outline>
</glyph>
<glyph name="zero.lc" format="2">
  <advance width="555"/>
  <outline>
    <contour>
      <point x="295" y="-12" type="curve" smooth="yes"/>
      <point x="463" y="-12"/>
      <point x="541" y="127"/>
      <point x="541" y="264" type="curve" smooth="yes"/>
      <point x="541" y="378"/>
      <point x="465" y="485"/>
      <point x="329" y="485" type="curve" smooth="yes"/>
      <point x="162" y="485"/>
      <point x="85" y="346"/>
      <point x="85" y="209" type="curve" smooth="yes"/>
      <point x="85" y="94"/>
      <point x="160" y="-12"/>
    </contour>
    <contour>
      <point x="297" y="16" type="curve" smooth="yes"/>
      <point x="190" y="16"/>
      <point x="116" y="97"/>
      <point x="116" y="210" type="curve" smooth="yes"/>
      <point x="116" y="345"/>
      <point x="195" y="457"/>
      <point x="329" y="457" type="curve" smooth="yes"/>
      <point x="436" y="457"/>
      <point x="510" y="376"/>
      <point x="510" y="263" type="curve" smooth="yes"/>
      <point x="510" y="127"/>
      <point x="431" y="16"/>
    </contour>
  </outline>
</glyph>
<glyph name="zero.lc_salt_slash" format="2">
  <advance width="555"/>
  <outline>
    <contour>
      <point x="295" y="-12" type="curve" smooth="yes"/>
      <point x="463" y="-12"/>
      <point x="541" y="127"/>
      <point x="541" y="264" type="curve" smooth="yes"/>
      <point x="541" y="378"/>
      <point x="465" y="485"/>
      <point x="329" y="485" type="curve" smooth="yes"/>
      <point x="162" y="485"/>
      <point x="85" y="346"/>
      <point x="85" y="209" type="curve" smooth="yes"/>
      <point x="85" y="94"/>
      <point x="160" y="-12"/>
    </contour>
    <contour>
      <point x="116" y="210" type="curve" smooth="yes"/>
      <point x="116" y="345"/>
      <point x="195" y="457"/>
      <point x="329" y="457" type="curve" smooth="yes"/>
      <point x="358" y="457"/>
      <point x="384" y="451"/>
      <point x="407" y="441" type="curve"/>
      <point x="192" y="48" type="line"/>
      <point x="145" y="82"/>
      <point x="116" y="140"/>
    </contour>
    <contour>
      <point x="297" y="16" type="curve" smooth="yes"/>
      <point x="267" y="16"/>
      <point x="240" y="22"/>
      <point x="216" y="34" type="curve"/>
      <point x="431" y="427" type="line"/>
      <point x="480" y="393"/>
      <point x="510" y="335"/>
      <point x="510" y="263" type="curve" smooth="yes"/>
      <point x="510" y="127"/>
      <point x="431" y="16"/>
    </contour>
  </outline>
</glyph>
<glyph name="zero.salt_slash" format="2">
  <advance width="553"/>
  <outline>
    <contour>
      <point x="288" y="-12" type="curve" smooth="yes"/>
      <point x="466" y="-12"/>
      <point x="548" y="210"/>
      <point x="548" y="422" type="curve" smooth="yes"/>
      <point x="548" y="602"/>
      <point x="464" y="670"/>
      <point x="357" y="670" type="curve" smooth="yes"/>
      <point x="181" y="670"/>
      <point x="97" y="448"/>
      <point x="97" y="236" type="curve" smooth="yes"/>
      <point x="97" y="55"/>
      <point x="181" y="-12"/>
    </contour>
    <contour>
      <point x="129" y="236" type="curve" smooth="yes"/>
      <point x="129" y="427"/>
      <point x="203" y="641"/>
      <point x="357" y="641" type="curve" smooth="yes"/>
      <point x="396" y="641"/>
      <point x="430" y="629"/>
      <point x="457" y="604" type="curve"/>
      <point x="166" y="79" type="line"/>
      <point x="143" y="114"/>
      <point x="129" y="166"/>
    </contour>
    <contour>
      <point x="288" y="16" type="curve" smooth="yes"/>
      <point x="248" y="16"/>
      <point x="213" y="28"/>
      <point x="186" y="55" type="curve"/>
      <point x="477" y="581" type="line"/>
      <point x="501" y="546"/>
      <point x="516" y="493"/>
      <point x="516" y="421" type="curve" smooth="yes"/>
      <point x="516" y="233"/>
      <point x="442" y="16"/>
    </contour>
  </outline>
</glyph>
<glyph name="zero.sc_salt_slash" format="2">
  <advance width="437"/>
  <outline>
    <contour>
      <point x="228" y="-8" type="curve" smooth="yes"/>
      <point x="348" y="-8"/>
      <point x="438" y="137"/>
      <point x="438" y="332" type="curve" smooth="yes"/>
      <point x="438" y="454"/>
      <point x="379" y="530"/>
      <point x="283" y="530" type="curve" smooth="yes"/>
      <point x="163" y="530"/>
      <point x="73" y="384"/>
      <point x="73" y="189" type="curve" smooth="yes"/>
      <point x="73" y="67"/>
      <point x="132" y="-8"/>
    </contour>
    <contour>
      <point x="105" y="189" type="curve" smooth="yes"/>
      <point x="105" y="368"/>
      <point x="181" y="501"/>
      <point x="284" y="501" type="curve" smooth="yes"/>
      <point x="313" y="501"/>
      <point x="339" y="491"/>
      <point x="358" y="472" type="curve"/>
      <point x="135" y="70" type="line"/>
      <point x="116" y="99"/>
      <point x="105" y="140"/>
    </contour>
    <contour>
      <point x="228" y="21" type="curve" smooth="yes"/>
      <point x="198" y="21"/>
      <point x="172" y="31"/>
      <point x="152" y="50" type="curve"/>
      <point x="376" y="451" type="line"/>
      <point x="395" y="422"/>
      <point x="406" y="381"/>
      <point x="406" y="331" type="curve" smooth="yes"/>
      <point x="406" y="153"/>
      <point x="330" y="21"/>
    </contour>
  </outline>
</glyph>
<glyph name="zero.tab_lc_salt_slash" format="2">
  <advance width="650"/>
  <outline>
    <contour>
      <point x="340" y="-12" type="curve" smooth="yes"/>
      <point x="509" y="-12"/>
      <point x="586" y="127"/>
      <point x="586" y="264" type="curve" smooth="yes"/>
      <point x="586" y="378"/>
      <point x="510" y="485"/>
      <point x="374" y="485" type="curve" smooth="yes"/>
      <point x="207" y="485"/>
      <point x="130" y="346"/>
      <point x="130" y="209" type="curve" smooth="yes"/>
      <point x="130" y="94"/>
      <point x="206" y="-12"/>
    </contour>
    <contour>
      <point x="161" y="210" type="curve" smooth="yes"/>
      <point x="161" y="345"/>
      <point x="240" y="457"/>
      <point x="374" y="457" type="curve" smooth="yes"/>
      <point x="403" y="457"/>
      <point x="430" y="451"/>
      <point x="453" y="440" type="curve"/>
      <point x="238" y="47" type="line"/>
      <point x="190" y="81"/>
      <point x="161" y="139"/>
    </contour>
    <contour>
      <point x="342" y="16" type="curve" smooth="yes"/>
      <point x="313" y="16"/>
      <point x="286" y="22"/>
      <point x="262" y="33" type="curve"/>
      <point x="478" y="426" type="line"/>
      <point x="526" y="392"/>
      <point x="555" y="334"/>
      <point x="555" y="263" type="curve" smooth="yes"/>
      <point x="555" y="127"/>
      <point x="476" y="16"/>
    </contour>
  </outline>
</glyph>
<glyph name="zero.tab_salt_slash" format="2">
  <advance width="650"/>
  <outline>
    <contour>
      <point x="337" y="-12" type="curve" smooth="yes"/>
      <point x="515" y="-12"/>
      <point x="597" y="214"/>
      <point x="597" y="430" type="curve" smooth="yes"/>
      <point x="597" y="610"/>
      <point x="513" y="678"/>
      <point x="406" y="678" type="curve" smooth="yes"/>
      <point x="230" y="678"/>
      <point x="146" y="452"/>
      <point x="146" y="236" type="curve" smooth="yes"/>
      <point x="146" y="55"/>
      <point x="230" y="-12"/>
    </contour>
    <contour>
      <point x="178" y="236" type="curve" smooth="yes"/>
      <point x="178" y="431"/>
      <point x="252" y="650"/>
      <point x="406" y="650" type="curve" smooth="yes"/>
      <point x="446" y="650"/>
      <point x="481" y="638"/>
      <point x="509" y="611" type="curve"/>
      <point x="215" y="79" type="line"/>
      <point x="192" y="115"/>
      <point x="178" y="166"/>
    </contour>
    <contour>
      <point x="337" y="15" type="curve" smooth="yes"/>
      <point x="297" y="15"/>
      <point x="261" y="28"/>
      <point x="234" y="55" type="curve"/>
      <point x="528" y="587" type="line"/>
      <point x="551" y="552"/>
      <point x="565" y="500"/>
      <point x="565" y="429" type="curve" smooth="yes"/>
      <point x="565" y="236"/>
      <point x="491" y="15"/>
    </contour>
  </outline>
</glyph>
